<svg width="150" height="150" viewBox="0 0 150 150" fill="none" xmlns="http://www.w3.org/2000/svg" style="width: 99px; height: 99px;"><style>
     .astronaut3-man {animation:astronaut3-man 4s infinite;}
     @keyframes astronaut3-man {
         0%{transform: translate3d(0, -8px, 0);}
         50%{transform: translate3d(0, 8px, 0);}
         100%{transform: translate3d(0, -8px, 0);}
     }

     .astronaut3-right-star {animation:astronaut3-right-star 4s 200ms infinite;}
     .astronaut3-left-star {animation:astronaut3-right-star 4s 400ms infinite;}
     .astronaut3-right-spec {animation:astronaut3-right-star 4s 600ms infinite;}
     .astronaut3-left-spec {animation:astronaut3-right-star 4s 800ms infinite;}
     .astronaut3-bottom-spec {animation:astronaut3-right-star 4s 300ms infinite;}
     .astronaut3-right-rock {animation:astronaut3-right-star 4s 1s infinite;}
     .astronaut3-left-rock {animation:astronaut3-right-star 4s 1200ms infinite;}
     @keyframes astronaut3-right-star {
         0%{transform: translate3d(0, 0, 0);}
         50%{transform: translate3d(0, 10px, 0);}
         100%{transform: translate3d(0, 0, 0);}
     }
     
     @media (prefers-reduced-motion: reduce) {
         .astronaut3-man, .astronaut3-right-star, .astronaut3-left-star, .astronaut3-right-spec, .astronaut3-left-spec, .astronaut3-bottom-spec, .astronaut3-right-rock, .astronaut3-left-rock {
             animation: none;
         }
     }

     .astronaut3-flame1 {animation:astronaut3-flame1 300ms infinite linear; transform-origin: 36px 82px;}
     .astronaut3-flame2 {animation:astronaut3-flame2 400ms infinite linear; transform-origin: 36px 82px;}
     @keyframes astronaut3-flame1 {
         0%{transform:scale(1);}
         50%{transform:scale(1.3);}
     }
     @keyframes astronaut3-flame2 {
         0%{transform:scale(1);}
         50%{transform:scale(1.25);}
     }
     @media (prefers-reduced-motion: reduce) {
         .astronaut3-flame1, astronaut3-flame2 {
             animation: none;
         }
     }
    </style><g class="astronaut1-right-rock" style="animation-duration: 4s;"><path class="fillCls8" d="M119.796 105.848C119.153 107.131 119.903 108.971 120.631 110.269C121.143 111.183 122.318 111.379 123.151 110.744C123.861 110.202 124.667 109.535 125.199 108.935C126.739 107.198 125.518 104.504 123.196 104.463C121.745 104.438 120.351 104.742 119.796 105.848Z" fill="#56CCA9" stroke-width="2px"></path><path class="fillCls9" d="M121.016 109.922L120.923 110.725C120.923 110.725 120.449 110.025 120.213 109.54C119.879 108.853 119.582 107.687 119.582 107.687C120.532 107.995 121.132 108.93 121.016 109.922Z" fill="#269473" stroke-width="2px"></path><circle class="fillCls9" cx="123.455" cy="106.444" r="1.01008" transform="rotate(6.65166 123.455 106.444)" fill="#269473" stroke-width="2px"></circle></g><ellipse class="astronaut3-right-spec fillCls8" cx="48.6766" cy="66.5381" rx="2.89193" ry="1.73516" transform="rotate(21.6517 48.6766 66.5381)" fill="#56CCA9" style="animation-duration: 4s;"></ellipse><ellipse class="astronaut3-right-spec fillCls8" cx="122.15" cy="41.9595" rx="2.47497" ry="1.48498" transform="rotate(-12.644 122.15 41.9595)" fill="#56CCA9" style="animation-duration: 4s;"></ellipse><ellipse class="astronaut3-bottom-spec fillCls8" cx="59.1868" cy="110.03" rx="1.80027" ry="0.694885" transform="rotate(-8.34834 59.1868 110.03)" fill="#56CCA9" style="animation-duration: 4s;"></ellipse><ellipse class="astronaut3-bottom-spec fillCls8" cx="94.9693" cy="114.509" rx="4.63903" ry="1.79062" transform="rotate(23.4146 94.9693 114.509)" fill="#56CCA9" style="animation-duration: 4s;"></ellipse><g class="astronaut3-left-rock fill1" style="animation-duration: 4s;"><path class="fillCls8" d="M53.8653 31.9408C53.1374 33.085 53.463 35.3901 53.463 35.3901C53.463 35.3901 56.2172 37.2154 58.1641 38.0043C60.2124 38.8342 63.6387 39.4373 63.6387 39.4373C63.6387 39.4373 66.0152 37.4461 65.9772 35.737C65.956 34.7813 61.8884 31.1493 59.6088 30.3857C57.0954 29.5437 54.5239 30.9054 53.8653 31.9408Z" fill="#56CCA9" stroke-width="2px"></path><path class="fillCls9" d="M56.4956 35.2666C55.5913 34.9029 54.0523 35.7763 54.0523 35.7763C54.0523 35.7763 55.476 36.6731 56.4329 37.1663C57.4756 37.7647 58.2413 38.0129 58.2413 38.0129C58.2413 38.0129 58.1653 35.9383 56.4956 35.2666Z" fill="#269473" stroke-width="2px"></path><ellipse class="fillCls9" cx="62.279" cy="35.3603" rx="2.11653" ry="1.20579" transform="rotate(36.8536 62.279 35.3603)" fill="#269473"></ellipse></g><g class="astronaut3-man" style="animation-duration: 4s;"><path class="fillCls5" d="M123.151 76.3337C121.27 80.1847 116.693 81.1647 116.693 81.1647L101.14 81.5226L101.64 77.2377L113.581 65.2904C113.581 65.2904 114.919 60.2332 117.462 58.6079C120.33 56.7749 123.021 57.1018 126.175 58.383C129.573 59.7637 133.999 61.9775 132.5 65.3252C130.672 69.4096 127.652 66.5315 125.573 68.8606C123.397 71.2995 124.585 73.3962 123.151 76.3337Z" fill="#4F9BE3" stroke-width="2px"></path><path class="fillCls5" d="M127.945 83.7357L125.405 84.702C125.196 84.7817 125.065 84.9908 125.085 85.2138L125.486 89.7082C125.507 89.9467 125.695 90.1367 125.933 90.1611L127.953 90.3686C127.961 90.3695 127.968 90.3704 127.976 90.3716C128.129 90.3958 129.82 90.6716 131.009 91.2107C132.836 92.039 133.98 91.3351 135.867 92.015C137.563 92.626 140.093 92.9857 141.212 93.1235C141.547 93.1647 141.862 92.9681 141.981 92.6518C142.122 92.2728 141.935 91.85 141.559 91.7004L139.276 90.7917C138.764 90.5879 138.91 89.8271 139.461 89.8272L144.716 89.8281C145.089 89.8282 145.415 89.5762 145.509 89.2151C145.629 88.7536 145.331 88.2875 144.862 88.2024L141.604 87.6114C141.036 87.5084 141.066 86.6839 141.64 86.6223L146.377 86.1143C146.839 86.0648 147.17 85.6469 147.114 85.1859C147.063 84.7683 146.709 84.4543 146.288 84.4542L141.167 84.4533C140.615 84.4532 140.471 83.6899 140.985 83.488L145.236 81.8179C145.728 81.6246 145.957 81.0577 145.737 80.5769C145.535 80.1347 145.023 79.9259 144.569 80.1001L137.763 82.7104C137.75 82.7151 137.738 82.7192 137.726 82.7227C137.557 82.7683 136.288 83.0829 135.671 82.3777C135.331 81.9905 135.085 81.2996 134.973 80.9392C134.928 80.7927 134.96 80.6348 135.053 80.5129L137.801 76.9154C137.831 76.8762 137.855 76.8333 137.871 76.7865C137.954 76.5312 138.208 75.6483 137.804 75.3518C137.577 75.1846 137.153 75.2137 136.948 75.2401C136.871 75.2501 136.801 75.2823 136.739 75.3302C136.126 75.8074 132.595 78.5536 130.242 80.3229C128.884 81.3446 128.426 82.7325 128.285 83.3321C128.242 83.5132 128.119 83.6696 127.945 83.7357Z" fill="#4F9BE3" stroke-width="2px"></path><path class="fillCls4" d="M130.415 85.8669C130.43 83.0768 128.125 81.5669 128.125 81.5669C128.125 81.5669 118.917 79.9181 114.522 79.8255C110.082 79.732 103.155 80.2061 103.155 80.2061L100.646 91.0816C100.646 91.0816 109.391 91.6769 115.003 91.6701C120.67 91.6632 129.502 91.0343 129.502 91.0343C129.502 91.0343 130.4 88.6571 130.415 85.8669Z" fill="#96C4EC" stroke-width="2px"></path><path class="fillCls5" d="M54.4721 94.5622L55.363 94.9191L57.5272 99.2688L56.4273 99.3545C55.55 99.4229 54.7198 99.7786 54.0652 100.367L52.598 101.685L50.3307 103.32C49.7474 103.74 49.0615 103.996 48.3451 104.059L42.995 104.535C42.8192 104.55 42.6465 104.482 42.5298 104.349C42.2494 104.031 42.4149 103.529 42.8294 103.44L47.8345 102.365L40.4408 102.244C40.2337 102.241 40.0405 102.139 39.9203 101.971C39.6324 101.567 39.8825 101.002 40.375 100.944L45.7009 100.316L38.2794 100.333C37.9263 100.334 37.6183 100.094 37.5332 99.7509C37.4202 99.2956 37.7387 98.8464 38.2058 98.8024L45.4017 98.1249L38.7618 98.0615C38.1706 98.0559 37.7005 97.5636 37.722 96.9728C37.7435 96.3815 38.2489 95.9246 38.8393 95.9626L44.614 96.3343C44.9066 96.3531 45.1895 96.2256 45.3692 95.9939C45.6987 95.5691 45.4119 94.9494 44.8749 94.9255L42.7168 94.8295C42.1188 94.8029 41.6861 94.2483 41.8057 93.6618C41.884 93.278 42.183 92.9791 42.5692 92.9129C44.0435 92.6603 47.7243 92.1242 49.6754 92.6816C50.9464 93.0446 53.9337 94.3309 54.365 94.5176C54.4011 94.5333 54.4355 94.5476 54.4721 94.5622Z" fill="#4F9BE3" stroke-width="2px"></path><path class="fillCls4" d="M51.0937 98.3324C50.389 96.0406 52.2412 93.8128 52.2412 93.8128C52.2412 93.8128 56.0326 90.5392 58.6632 89.2879C61.4337 87.9701 66.0953 86.7421 66.0953 86.7421L74.9614 95.842C74.9614 95.842 68.4335 98.319 64.1371 99.5433C60.019 100.717 53.2217 101.373 53.2217 101.373C53.2217 101.373 51.6529 100.151 51.0937 98.3324Z" fill="#96C4EC" stroke-width="2px"></path><path class="fillCls5" d="M101.057 52.9717C98.3932 54.4934 96.8696 59.6186 96.8696 59.6186L100.583 65.0153C100.583 65.0153 105.068 64.7415 106.827 62.0207C108.826 58.9291 110.625 53.8511 107.357 52.1552C105.155 51.0125 103.211 51.7412 101.057 52.9717Z" fill="#4F9BE3" stroke-width="2px"></path><path class="fillCls6" d="M116.503 72.1458L102.037 79.1452L100.766 68.7595L109.729 66.3922L116.62 63.1629L116.503 72.1458Z" fill="#B64074" stroke-width="2px"></path><path class="fillCls7" d="M110.035 66.4278C106.552 67.7684 100.767 68.7595 100.767 68.7595L96.5632 59.5829C96.5632 59.5829 103.657 58.7149 108.03 59.6793C111.565 60.4588 116.621 63.1629 116.621 63.1629C116.621 63.1629 112.714 65.3969 110.035 66.4278Z" fill="#D2699D" stroke-width="2px"></path><path class="fillCls3" d="M105.191 76.9708C105.124 84.4956 102.539 92.9681 97.8677 94.7905L66.5707 64.0507C66.5707 64.0507 73.8646 56.4548 80.4599 55.15C87.1667 53.8231 92.2099 54.3159 97.6448 58.4691C103.836 63.2004 105.261 69.163 105.191 76.9708Z" fill="#5C6EB9" stroke-width="2px"></path><path class="fillCls2" d="M80.5493 63.4989C75.1911 62.787 66.7128 63.8577 66.7128 63.8577C62.7583 65.8862 62.135 75.8669 63.6409 81.2219C65.1558 87.8694 67.9886 91.7964 73.7695 95.3642C77.8399 97.8763 80.7652 98.731 85.5484 98.7217C90.8516 98.7114 98.4686 94.5414 98.4686 94.5414C98.4686 94.5414 98.2366 71.4156 94.167 67.631C90.0974 63.8463 86.0584 64.2309 80.5493 63.4989Z" fill="#3CC099" stroke-width="2px"></path><path class="fillCls10" d="M69.8307 73.3331C70.0223 71.9016 69.3631 70.3712 68.0255 70.2152C66.6878 70.0592 65.6401 71.3929 65.5512 72.834C65.4577 74.3481 66.5197 75.9415 67.9248 75.7275C69.0545 75.5554 69.669 74.5422 69.8307 73.3331Z" fill="#E1FFF6" stroke-width="2px"></path><path class="fillCls1" d="M35.1674 82.5979L27.2319 82.0393C26.5902 81.9941 26.0094 81.643 25.6712 81.0959L21.2006 73.8647C20.3878 72.5499 18.4543 72.6149 17.7315 73.9813L13.3999 82.1712C13.1431 82.6566 12.6981 83.0151 12.1691 83.1626L4.60305 85.2724C3.09761 85.6922 2.63378 87.599 3.77819 88.6634L10.1813 94.6187C10.6228 95.0293 10.8555 95.6172 10.8146 96.2187L10.2661 104.294C10.1565 105.908 11.9076 106.977 13.293 106.143L20.4154 101.855C20.9613 101.527 21.6311 101.478 22.2188 101.724L29.9495 104.958C31.4293 105.577 32.9992 104.289 32.6818 102.717L30.9415 94.0946C30.8248 93.5167 30.9692 92.9167 31.3359 92.455L36.593 85.8369C37.5939 84.5769 36.7726 82.7109 35.1674 82.5979Z" fill="#FFB95B" stroke-width="2px"></path></g></svg>