<svg width="100" height="100" viewBox="0 0 100 100" fill="none" xmlns="http://www.w3.org/2000/svg" style="width: 150px; height: 150px;"><style>
     .line-home2 {animation:line-home2 2s linear infinite; transform-origin: 49.5px 67.5px;}
     @keyframes line-home2 {
         100%{transform: rotate(360deg);}
     }
     @media (prefers-reduced-motion: reduce) {
         .line-home2 {
             animation: none;
         }
     }
    </style><rect class="stroke1 fill1" x="20" y="41" width="60" height="48" rx="1" fill="#fff" stroke="#000" stroke-width="2px" style="animation-duration: 2s;"></rect><g class="line-home2" style="animation-duration: 2s;"><path class="stroke2 fill2" d="M47.0377 54V55.1308C47.0377 55.5028 46.8313 55.844 46.5017 56.0166L43.8588 57.401C43.4714 57.604 42.997 57.5316 42.6877 57.2223L41.726 56.2606C41.3355 55.87 40.7023 55.87 40.3118 56.2606L38.2305 58.3418C37.8519 58.7204 37.8387 59.33 38.2004 59.7247L39.0852 60.6899C39.37 61.0005 39.4294 61.4563 39.2339 61.8296L37.8342 64.5017C37.6616 64.8313 37.3204 65.0377 36.9484 65.0377H36C35.4477 65.0377 35 65.4855 35 66.0377V68.9623C35 69.5145 35.4477 69.9623 36 69.9623H37.1178C37.4966 69.9623 37.8428 70.1763 38.0122 70.515L39.4048 73.3002C39.6045 73.6995 39.5152 74.1828 39.1861 74.4845L38.3234 75.2754C37.9037 75.6601 37.8894 76.3171 38.292 76.7196L40.3446 78.7723C40.7221 79.1498 41.3294 79.1642 41.7244 78.8051L42.538 78.0655C42.8336 77.7968 43.2608 77.7298 43.6245 77.8951L46.4515 79.1801C46.8085 79.3424 47.0377 79.6983 47.0377 80.0905V81C47.0377 81.5523 47.4855 82 48.0377 82H50.9623C51.5145 82 51.9623 81.5523 51.9623 81V80.1022C51.9623 79.7041 52.1984 79.3439 52.5635 79.1851L55.5328 77.8941C55.9096 77.7303 56.3482 77.8136 56.6387 78.1041L57.274 78.7394C57.6645 79.13 58.2977 79.13 58.6882 78.7394L60.7394 76.6882C61.13 76.2977 61.13 75.6645 60.7394 75.274L59.9499 74.4845C59.6455 74.1801 59.5701 73.7152 59.7626 73.3302L61.1701 70.515C61.3395 70.1763 61.6858 69.9623 62.0646 69.9623H63C63.5523 69.9623 64 69.5145 64 68.9623V66.0377C64 65.4855 63.5523 65.0377 63 65.0377H61.8025C61.3721 65.0377 60.99 64.7623 60.8538 64.354L59.9707 61.7046C59.867 61.3933 59.9225 61.0509 60.1194 60.7884L60.9262 59.7127C61.2248 59.3146 61.1852 58.7575 60.8333 58.4056L58.6882 56.2606C58.2977 55.87 57.6645 55.87 57.274 56.2606L56.4649 57.0697C56.1701 57.3645 55.7234 57.4455 55.344 57.273L52.5485 56.0023C52.1915 55.84 51.9623 55.4841 51.9623 55.0919V54C51.9623 53.4477 51.5145 53 50.9623 53H48.0377C47.4855 53 47.0377 53.4477 47.0377 54Z" fill="#fff" stroke="#000" stroke-width="2px"></path><circle class="stroke2 fill2" cx="49.5" cy="67.5" r="7.5" fill="#fff" stroke="#000" stroke-width="2px"></circle><path class="stroke2 fill2" d="M53 67.5C53 69.433 51.433 71 49.5 71C47.567 71 46 69.433 46 67.5C46 65.567 47.567 64 49.5 64C51.433 64 53 65.567 53 67.5Z" fill="#fff" stroke="#000" stroke-width="2px"></path></g><rect class="stroke1 fill1" x="21" y="11" width="13" height="28" rx="1" fill="#fff" stroke="#000" stroke-width="2px" style="animation-duration: 2s;"></rect><path class="stroke1 fill1" d="M49.337 11.5873C49.7154 11.252 50.2846 11.252 50.663 11.5873L86.1309 43.0014C86.8199 43.6117 86.3882 44.75 85.4679 44.75H14.5321C13.6118 44.75 13.1801 43.6117 13.8691 43.0014L49.337 11.5873Z" fill="#fff" stroke="#000" stroke-width="2px" style="animation-duration: 2s;"></path></svg>