<svg width="100" height="100" viewBox="0 0 100 100" fill="none" xmlns="http://www.w3.org/2000/svg" ><style>
     .line-koi1 {animation:line-koi1-spin 3s infinite reverse linear; transform-origin: 50px 50px;}
     @keyframes line-koi1-spin {
         100%{transform:rotate(360deg);}
     }
     @media (prefers-reduced-motion: reduce) {
         .line-koi1 {
             animation: none;
         }
     }
    </style><g class="line-koi1" style="animation-duration: 3s;"><path class="stroke2 fill2" d="M68.4996 69.9999C69.0831 69.6059 69.4996 68.4999 69.4996 68.4999L72.9996 69.4999C72.9996 69.4999 73.6548 71.6208 73.9996 72.9999C74.9997 76.9999 76.9997 83.9999 72.4996 84.4999C68.4996 83.9999 70.4996 78.2913 66.9996 76.4999C65.4997 75.7322 60.9997 78.4999 58.4997 75.4999C57.4317 74.2182 57.82 73.1796 58.9997 71.9999C59.9996 70.9999 61.7849 69.3368 64.4997 69.4999L68.4996 69.9999Z" fill="#fff" stroke="#000" stroke-width="2px"></path><path class="stroke2 fill2" d="M83.4998 30.9999C80.4998 30.0768 76.4998 30.9999 76.4998 30.9999L77.9998 37.4999H87.0582C87.9191 37.4999 88.6958 36.9327 88.6395 36.0737C88.5417 34.5806 87.6568 32.2789 83.4998 30.9999Z" fill="#fff" stroke="#000" stroke-width="2px"></path><path class="stroke2 fill2" d="M60.4998 41.4999C61.0197 39.1091 63.4998 35.9999 63.4998 35.9999L69.4998 40.9999L62.4534 48.0462C61.9788 48.5209 61.2019 48.3917 60.9805 47.758C60.5028 46.391 59.9459 44.0468 60.4998 41.4999Z" fill="#fff" stroke="#000" stroke-width="2px"></path><path class="fill1" d="M72.9997 72.5C81.5685 63.3443 81.4997 63.5 82.4997 51C82.6698 48.8742 83.0849 43.6146 81.0865 37.5C80.3892 35.3661 79.3979 33.1282 77.9998 30.883C75.8895 27.4942 72.8523 24.0889 68.4997 21C66.5536 19.6188 63.6873 20.252 61.4998 21.1965C60.0367 21.8282 58.8772 22.5992 58.4997 23C58.0398 23.4882 56.5984 25.4072 56.408 28C56.2086 30.717 57.3828 34.1739 62.4997 37.5C62.4997 37.5 65.2967 38.9917 67.7023 43C69.2359 45.5553 70.6104 49.1335 70.9997 54C71.7646 63.5608 68.4997 70 68.4997 70L72.9997 72.5Z" fill="#fff" stroke-width="2px"></path><path class="stroke1" d="M61.4998 21.1965C60.0367 21.8282 58.8772 22.5992 58.4997 23C58.0398 23.4882 56.5984 25.4072 56.408 28M61.4998 21.1965C63.6873 20.252 66.5536 19.6188 68.4997 21C72.8523 24.0889 75.8895 27.4942 77.9998 30.883C79.3979 33.1282 80.3892 35.3661 81.0865 37.5C83.0849 43.6146 82.6698 48.8742 82.4997 51C81.4997 63.5 81.5685 63.3443 72.9997 72.5L68.4997 70C68.4997 70 71.7646 63.5608 70.9997 54C70.6104 49.1335 69.2359 45.5553 67.7023 43C65.2967 38.9917 62.4997 37.5 62.4997 37.5C57.3828 34.1739 56.2086 30.717 56.408 28M61.4998 21.1965C61.4998 21.1965 61.418 19.594 61.1998 18.5983C60.9378 17.4033 59.9998 16 59.9998 16M56.408 28C56.408 28 54.7672 28.1507 53.7039 28C52.5082 27.8306 50.9998 27 50.9998 27" stroke="#000" stroke-width="2px" stroke-linecap="round"></path><path class="stroke2 fill2" d="M31.1498 30.5C30.5663 30.8939 30.1498 32 30.1498 32L26.6498 31C26.6498 31 25.9946 28.8791 25.6498 27.5C24.6497 23.5 22.6497 16.5 27.1498 16C31.1498 16.5 29.1498 22.2086 32.6498 24C34.1497 24.7677 38.6497 22 41.1497 25C42.2177 26.2816 41.8294 27.3203 40.6497 28.5C39.6498 29.5 37.8645 31.1631 35.1497 31L31.1498 30.5Z" fill="#fff" stroke="#000" stroke-width="2px"></path><path class="stroke2 fill2" d="M16.1497 69.5C19.1497 70.423 23.1497 69.5 23.1497 69.5L21.6497 63H12.5912C11.7303 63 10.9536 63.5671 11.0099 64.4262C11.1077 65.9193 11.9926 68.2209 16.1497 69.5Z" fill="#fff" stroke="#000" stroke-width="2px"></path><path class="stroke2 fill2" d="M39.1496 59C38.6297 61.3908 36.1496 64.5 36.1496 64.5L30.1496 59.5L37.196 52.4536C37.6706 51.979 38.4475 52.1082 38.6689 52.7418C39.1466 54.1089 39.7035 56.4531 39.1496 59Z" fill="#fff" stroke="#000" stroke-width="2px"></path><path class="fill1" d="M26.6497 27.9999C18.0809 37.1556 18.1497 36.9999 17.1497 49.4999C16.9796 51.6257 16.5645 56.8853 18.5629 62.9999C19.2602 65.1337 20.2515 67.3717 21.6496 69.6169C23.7599 73.0057 26.7971 76.411 31.1497 79.4999C33.0959 80.8811 35.9621 80.2479 38.1497 79.3034C39.6127 78.6716 40.7722 77.9006 41.1497 77.4999C41.6096 77.0117 43.051 75.0927 43.2414 72.4999C43.4409 69.7829 42.2666 66.3259 37.1497 62.9999C37.1497 62.9999 34.3527 61.5082 31.9471 57.4999C30.4135 54.9445 29.039 51.3664 28.6497 46.4999C27.8848 36.9391 31.1497 30.4999 31.1497 30.4999L26.6497 27.9999Z" fill="#fff" stroke-width="2px"></path><path class="stroke1" d="M38.1497 79.3034C39.6127 78.6716 40.7722 77.9006 41.1497 77.4999C41.6096 77.0117 43.051 75.0927 43.2414 72.4999M38.1497 79.3034C35.9621 80.2479 33.0959 80.8811 31.1497 79.4999C26.7971 76.411 23.7599 73.0057 21.6496 69.6169C20.2515 67.3717 19.2602 65.1337 18.5629 62.9999C16.5645 56.8853 16.9796 51.6257 17.1497 49.4999C18.1497 36.9999 18.0809 37.1556 26.6497 27.9999L31.1497 30.4999C31.1497 30.4999 27.8848 36.9391 28.6497 46.4999C29.039 51.3664 30.4135 54.9445 31.9471 57.4999C34.3527 61.5082 37.1497 62.9999 37.1497 62.9999C42.2666 66.3259 43.4409 69.7829 43.2414 72.4999M38.1497 79.3034C38.1497 79.3034 38.2314 80.9059 38.4497 81.9016C38.7116 83.0966 39.6497 84.4999 39.6497 84.4999M43.2414 72.4999C43.2414 72.4999 44.8822 72.3492 45.9455 72.4999C47.1412 72.6693 48.6497 73.4999 48.6497 73.4999" stroke="#000" stroke-width="2px" stroke-linecap="round"></path></g></svg>