<svg width="100" height="100" viewBox="-5 -5 110 110" fill="none" xmlns="http://www.w3.org/2000/svg" style="width: 100px; height: 100px;"><style>
     .line-drone1-a {animation:line-drone1-spin 400ms infinite linear; transform-origin: 79px 19px;}
     .line-drone1-b {animation:line-drone1-spin 400ms infinite linear; transform-origin: 20.4px 19px;}
     .line-drone1-c {animation:line-drone1-spin 400ms infinite linear; transform-origin: 20.4px 80px;}
     .line-drone1-d {animation:line-drone1-spin 400ms infinite linear; transform-origin: 79px 80px;}
     @keyframes line-drone1-spin {
         100%{transform:rotate(360deg);}
     }
     @media (prefers-reduced-motion: reduce) {
         .line-drone1-a, .line-drone1-b, .line-drone1-c, .line-drone1-d {
             animation: none;
         }
     }
    </style><path class="stroke2" d="M60.5 30L74 21" stroke="#000" stroke-width="2px" style="animation-duration: 0.4s;"></path><path class="stroke2" d="M62 42L79 24.5" stroke="#000" stroke-width="2px" style="animation-duration: 0.4s;"></path><path class="line-drone1-a stroke2 fill2" d="M79 13C77.576 13 76.2679 13.4961 75.239 14.3248L66.2071 5.29289L64.7929 6.70711L73.909 15.8232C73.333 16.7445 73 17.8334 73 19C73 22.3137 75.6863 25 79 25C80.2771 25 81.4621 24.6002 82.435 23.9199L91.2222 32.7071L92.6364 31.2929L83.8611 22.5176C84.577 21.5296 85 20.3136 85 19C85 15.6863 82.3137 13 79 13Z" fill="#FFF" stroke="#000" stroke-width="2px" style="animation-duration: 0.4s;"></path><path class="stroke2" d="M38.9292 30L25.4292 21" stroke="#000" stroke-width="2px" style="animation-duration: 0.4s;"></path><path class="stroke2" d="M37.4292 42L20.4292 24.5" stroke="#000" stroke-width="2px" style="animation-duration: 0.4s;"></path><path class="line-drone1-b stroke2 fill2" d="M20.4292 13C21.8532 13 23.1613 13.4961 24.1902 14.3248L33.2221 5.29289L34.6363 6.70711L25.5202 15.8232C26.0962 16.7445 26.4292 17.8334 26.4292 19C26.4292 22.3137 23.7429 25 20.4292 25C19.1521 25 17.9671 24.6002 16.9942 23.9199L8.20702 32.7071L6.79281 31.2929L15.5681 22.5176C14.8522 21.5296 14.4292 20.3136 14.4292 19C14.4292 15.6863 17.1155 13 20.4292 13Z" fill="#FFF" stroke="#000" stroke-width="2px" style="animation-duration: 0.4s;"></path><path class="stroke2" d="M38.929 69L25.429 78" stroke="#000" stroke-width="2px" style="animation-duration: 0.4s;"></path><path class="stroke2" d="M37.429 57L20.429 74.5" stroke="#000" stroke-width="2px" style="animation-duration: 0.4s;"></path><path class="line-drone1-c stroke2 fill2" d="M20.429 86C21.8529 86 23.1611 85.5039 24.1899 84.6752L33.2218 93.7071L34.6361 92.2929L25.5199 83.1768C26.096 82.2555 26.429 81.1666 26.429 80C26.429 76.6863 23.7427 74 20.429 74C19.1518 74 17.9668 74.3998 16.994 75.0801L8.20678 66.2929L6.79256 67.7071L15.5679 76.4824C14.8519 77.4704 14.429 78.6864 14.429 80C14.429 83.3137 17.1152 86 20.429 86Z" fill="#FFF" stroke="#000" stroke-width="2px" style="animation-duration: 0.4s;"></path><path class="stroke2" d="M60.4998 69L73.9998 78" stroke="#000" stroke-width="2px" style="animation-duration: 0.4s;"></path><path class="stroke2" d="M61.9998 57L78.9998 74.5" stroke="#000" stroke-width="2px" style="animation-duration: 0.4s;"></path><path class="line-drone1-d stroke2 fill2" d="M78.9998 86C77.5758 86 76.2676 85.5039 75.2388 84.6752L66.2069 93.7071L64.7926 92.2929L73.9088 83.1768C73.3327 82.2555 72.9998 81.1666 72.9998 80C72.9998 76.6863 75.686 74 78.9998 74C80.2769 74 81.4619 74.3998 82.4347 75.0801L91.2219 66.2929L92.6361 67.7071L83.8609 76.4824C84.5768 77.4704 84.9998 78.6864 84.9998 80C84.9998 83.3137 82.3135 86 78.9998 86Z" fill="#FFF" stroke="#000" stroke-width="2px" style="animation-duration: 0.4s;"></path><path class="stroke1 fill1" d="M36.0613 35.2315L38.2899 69.4549C38.5296 73.1365 41.5857 76 45.2751 76H54.7249C58.4143 76 61.4704 73.1365 61.7101 69.4549L63.929 35.3799C63.9817 34.5719 63.901 33.7097 63.5616 32.8851C62.4721 30.238 58.6798 23 49.7347 23C40.6126 23 37.2129 30.5166 36.3231 33.0619C36.0676 33.7925 36.016 34.5365 36.0613 35.2315Z" fill="#FFF" stroke="#000" stroke-width="2px" style="animation-duration: 0.4s;"></path><path class="stroke1" d="M42.9998 75.5V25.3" stroke="#000" stroke-width="2px" style="animation-duration: 0.4s;"></path><path class="stroke1" d="M56.9998 75.5V25.3" stroke="#000" stroke-width="2px" style="animation-duration: 0.4s;"></path><path class="stroke1" d="M50 49.5V29.5" stroke="#000" stroke-width="2px" style="animation-duration: 0.4s;"></path></svg>