<svg width="100" height="100" viewBox="0 0 100 100" fill="none" xmlns="http://www.w3.org/2000/svg" style="width: 100px; height: 100px;"><style>
     .line-candle3-a {animation:line-candle3-a 200ms infinite linear; transform-origin: 39.5px 28px;}
     .line-candle3-b {animation:line-candle3-b 200ms infinite linear; transform-origin: 69px 50px;}
     @keyframes line-candle3-a {
         0%{transform:scale(1);}
         30%{transform:scale(1.2);}
     }
     @keyframes line-candle3-b {
         0%{transform:scale(1);}
         60%{transform:scale(1.2);}
     }
     @media (prefers-reduced-motion: reduce) {
         .line-candle3-a, .line-candle3-b {
             animation: none;
         }
     }
    </style><path class="fill1" d="M18 41C18 41 20 46 39 46C58 46 60 41 60 41V85.8C60 86.5386 59.5921 87.2132 58.9122 87.5019C56.3828 88.5759 49.5095 91 39 91C28.4905 91 21.6172 88.5759 19.0878 87.5019C18.4079 87.2132 18 86.5386 18 85.8V41Z" fill="#FFF" stroke-width="2px" style="animation-duration: 0.2s;"></path><path class="fill1" d="M18 41C18 41 20 46 39 46C58 46 60 41 60 41C60 41 60 35 39 35C18 35 18 41 18 41Z" fill="#FFF" stroke-width="2px" style="animation-duration: 0.2s;"></path><path class="stroke1" d="M18 41V85.8C18 86.5386 18.4079 87.2132 19.0878 87.5019C21.6172 88.5759 28.4905 91 39 91C49.5095 91 56.3828 88.5759 58.9122 87.5019C59.5921 87.2132 60 86.5386 60 85.8V41M18 41C18 41 20 46 39 46C58 46 60 41 60 41M18 41C18 41 18 35 39 35C60 35 60 41 60 41" stroke="#000" stroke-width="2px" style="animation-duration: 0.2s;"></path><path class="stroke1" d="M39.5 27.5V40" stroke="#000" stroke-width="2px" stroke-linecap="round" style="animation-duration: 0.2s;"></path><path class="line-candle3-a stroke2 fill2" d="M46 21.6667C46 25.1645 43.0286 28 39.3143 28C35.6 28 33 24.4375 33 21.6667C33 16.5208 39.3143 9 39.3143 9C39.3143 9 46 17.3125 46 21.6667Z" fill="#FFF" stroke="#000" stroke-width="2px" style="animation-duration: 0.2s;"></path><path class="fill1" d="M56 60C56 60 57.2381 63.1 69 63.1C80.7619 63.1 82 60 82 60C82 60 80.5 56 69 56C57.5 56 56 60 56 60Z" fill="#FFF" stroke-width="2px" style="animation-duration: 0.2s;"></path><path class="fill1" d="M80.9042 89.004C81.591 88.7333 82 88.059 82 87.3209V60C82 60 80.7619 63.1 69 63.1C57.2381 63.1 56 60 56 60V87.3209C56 88.059 56.409 88.7333 57.0958 89.004C58.9273 89.7257 63.0094 91 69 91C74.9906 91 79.0727 89.7257 80.9042 89.004Z" fill="#FFF" stroke-width="2px" style="animation-duration: 0.2s;"></path><path class="stroke1" d="M56 60V87.3209C56 88.059 56.409 88.7333 57.0958 89.004C58.9273 89.7257 63.0094 91 69 91C74.9906 91 79.0727 89.7257 80.9042 89.004C81.591 88.7333 82 88.059 82 87.3209V60M56 60C56 60 57.2381 63.1 69 63.1C80.7619 63.1 82 60 82 60M56 60C56 60 57.5 56 69 56C80.5 56 82 60 82 60" stroke="#000" stroke-width="2px" style="animation-duration: 0.2s;"></path><path class="stroke1" d="M69 50V59" stroke="#000" stroke-width="2px" stroke-linecap="round" style="animation-duration: 0.2s;"></path><path class="line-candle3-b stroke2 fill2" d="M74 45.3333C74 47.9107 71.7143 50 68.8571 50C66 50 64 47.375 64 45.3333C64 41.5417 68.8571 36 68.8571 36C68.8571 36 74 42.125 74 45.3333Z" fill="#FFF" stroke="#000" stroke-width="2px" style="animation-duration: 0.2s;"></path></svg>