<svg width="100" height="100" viewBox="0 0 100 100" fill="none" xmlns="http://www.w3.org/2000/svg" style="width: 100px; height: 100px;"><style>
     .line-bath1-a {animation:line-bath2 5s 1s ease-in infinite;}
     .line-bath1-b {animation:line-bath1 6s 2s ease-in infinite;}
     .line-bath1-c {animation:line-bath1 7s 3s ease-in infinite;}
     .line-bath1-d {animation:line-bath2 6s 4s ease-in infinite;}
     .line-bath1-e {animation:line-bath1 5s 5s ease-in infinite;}
     .line-bath1-f {animation:line-bath1 6s 6s ease-in infinite;}
     @keyframes line-bath1 {
         0%{transform:translate3d(0, 0px, 0);}
         90%{transform:translate3d(0, -200px, 0);}
         100%{transform:translate3d(0, -200px, 0);}
     }
     @keyframes line-bath2 {
         0%{transform:translate3d(0, 0px, 0);}
         90%{transform:translate3d(0, -200px, 0);}
         100%{transform:translate3d(0, -200px, 0);}
     }
     @media (prefers-reduced-motion: reduce) {
         .line-bath1-a, .line-bath1-b, .line-bath1-c, .line-bath1-d, .line-bath1-e, .line-bath1-f {
             animation: none;
         }
     }
    </style><circle class="line-bath1-a stroke2 fill2" cx="41" cy="66" r="4" fill="#fff" stroke="#000" stroke-width="2px" style="animation-duration: 5s;"></circle><circle class="line-bath1-b stroke2 fill2" cx="60" cy="71" r="4" fill="#fff" stroke="#000" stroke-width="2px" style="animation-duration: 5s;"></circle><circle class="line-bath1-c stroke2 fill2" cx="78" cy="66" r="4" fill="#fff" stroke="#000" stroke-width="2px" style="animation-duration: 5s;"></circle><circle class="line-bath1-d stroke2 fill2" cx="70" cy="59" r="3" fill="#fff" stroke="#000" stroke-width="2px" style="animation-duration: 5s;"></circle><circle class="line-bath1-e stroke2 fill2" cx="31" cy="75" r="3" fill="#fff" stroke="#000" stroke-width="2px" style="animation-duration: 5s;"></circle><circle class="line-bath1-f stroke2 fill2" cx="50" cy="77" r="3" fill="#fff" stroke="#000" stroke-width="2px" style="animation-duration: 5s;"></circle><path class="stroke1 fill1" d="M75 83.5H23.5C16 83.5 13 60 13 60L12.151 53.6322C12.071 53.0327 12.5374 52.5 13.1422 52.5H14H85.3578C85.9626 52.5 86.429 53.0327 86.349 53.6322L85.5 60C85.5 60 82.5 83.5 75 83.5Z" fill="#fff" stroke-width="2px" style="animation-duration: 5s;"></path><path class="stroke1 fill1" d="M13 60C13 60 16 83.5 23.5 83.5H75C82.5 83.5 85.5 60 85.5 60M13 60L12.151 53.6322C12.071 53.0327 12.5374 52.5 13.1422 52.5H14M13 60H85.5M85.5 60L86.349 53.6322C86.429 53.0327 85.9626 52.5 85.3578 52.5H14M14 52.5V38.5C14 38.5 14 33.5 19.25 33.5C24.5 33.5 24.5 38.5 24.5 38.5V43.5" stroke="#000" stroke-width="2px" style="animation-duration: 5s;"></path></svg>