<svg width="100" height="100" viewBox="0 0 100 100" fill="none" xmlns="http://www.w3.org/2000/svg" style="width: 100px; height: 100px;"><style>
     .line-axe1 {animation:line-axe1 2s infinite; transform-origin: 67px 58px;}
     @keyframes line-axe1 {
         0%{transform:rotate(0deg);}
         30%{transform:rotate(0deg);}
         50%{transform:translate3d(4px, -8px, 0) rotate(20deg);}
         60%{transform:translate3d(0, -5px, 0) rotate(-45deg);}
         70%{transform:translate3d(0, -5px, 0) rotate(-45deg);}
         90%{transform:rotate(0deg);}
         100%{transform:rotate(0deg);}
     }
     @media (prefers-reduced-motion: reduce) {
         .line-axe1 {
             animation: none;
         }
     }
    </style><g class="line-axe1" style="animation-duration: 2s;"><path class="stroke2 fill2" d="M94.71 61.9607L51.7891 19.0408L48.2537 22.5763L91.1746 65.4962L94.71 61.9607Z" fill="rgba(255,43,43,1)" stroke="rgba(0,0,0,1)" stroke-width="2px" stroke-miterlimit="10" stroke-linejoin="round"></path><path class="stroke2 fill2" d="M56.8375 35.4708L64.7576 27.5511L56.9862 19.7983L49.0661 27.718L34.2426 31.897C35.1176 36.3213 37.2482 40.4091 40.6534 43.8449C44.0587 47.2806 48.2418 49.3691 52.5265 50.2916L56.8375 35.4708Z" fill="rgba(255,43,43,1)" stroke="rgba(0,0,0,1)" stroke-width="2px" stroke-miterlimit="10" stroke-linejoin="round"></path><path class="stroke2" d="M39.2669 30.5511C39.9088 34.1061 41.6392 37.473 44.3545 40.2654C47.0697 43.0578 50.5179 44.722 54.023 45.4393" stroke="rgba(0,0,0,1)" stroke-width="2px" stroke-miterlimit="10" stroke-linejoin="round"></path></g><path class="stroke1 fill1" d="M57.6 75.8256V61.2256C57.6 60.6256 57.1 60.2256 56.6 60.2256H23.3C22.7 60.2256 22.3 60.6256 22.3 61.2256V75.8256C22.3 75.8256 19.3 78.7256 17.5 80.6256V87.2256H22.3H57.6H62.4V80.6256C60.5 78.7256 57.6 75.8256 57.6 75.8256Z" fill="rgba(105,80,46,1)" stroke="rgba(0,0,0,1)" stroke-width="2px" stroke-miterlimit="10" stroke-linecap="round" style="animation-duration: 2s;"></path><path class="stroke1" d="M9.30078 87.2256H71.3008" stroke="rgba(0,0,0,1)" stroke-width="2px" stroke-miterlimit="10" stroke-linecap="round" style="animation-duration: 2s;"></path><path class="stroke1" d="M28.5996 68.4256V60.3256" stroke="rgba(0,0,0,1)" stroke-width="2px" stroke-miterlimit="10" stroke-linecap="round" style="animation-duration: 2s;"></path><path class="stroke1" d="M42.8008 77.8256V69.7256" stroke="rgba(0,0,0,1)" stroke-width="2px" stroke-miterlimit="10" stroke-linecap="round" style="animation-duration: 2s;"></path><path class="stroke1" d="M51.3008 70.8256V66.1256" stroke="rgba(0,0,0,1)" stroke-width="2px" stroke-miterlimit="10" stroke-linecap="round" style="animation-duration: 2s;"></path><path class="stroke1" d="M51.3008 82.7256V79.0256" stroke="rgba(0,0,0,1)" stroke-width="2px" stroke-miterlimit="10" stroke-linecap="round" style="animation-duration: 2s;"></path><path class="stroke1" d="M34.4004 71.2256V68.5256" stroke="rgba(0,0,0,1)" stroke-width="2px" stroke-miterlimit="10" stroke-linecap="round" style="animation-duration: 2s;"></path><path class="stroke1" d="M27.5 81.5256V77.8256" stroke="rgba(0,0,0,1)" stroke-width="2px" stroke-miterlimit="10" stroke-linecap="round" style="animation-duration: 2s;"></path><path class="stroke1 fill1" d="M5 63.1256C5 63.1256 11.2 60.3256 15.5 63.8256C19.8 67.3256 19.1 71.3256 19.1 71.3256C19.1 71.3256 15.1 74.2256 9.3 71.3256C5.4 69.4256 5 63.1256 5 63.1256Z" fill="rgba(105,80,46,1)" stroke="rgba(0,0,0,1)" stroke-width="2px" stroke-miterlimit="10" stroke-linecap="round" style="animation-duration: 2s;"></path><path class="stroke1" d="M12.6992 67.5256C12.6992 67.5256 17.9992 71.2256 22.2992 73.0256" stroke="rgba(0,0,0,1)" stroke-width="2px" stroke-miterlimit="10" stroke-linecap="round" style="animation-duration: 2s;"></path></svg>