<svg width="100" height="100" viewBox="0 0 100 100" fill="none" xmlns="http://www.w3.org/2000/svg" ><style>
     .line-draw1-line {animation:line-draw1-line 4s infinite; stroke-dasharray: 110; stroke-dashoffset: 120;}
     .line-draw1-pencil {animation:line-draw1-pencil 4s infinite;}
     @keyframes line-draw1-line {
         0%{stroke-dashoffset: 110;}
         20%{stroke-dashoffset: 110;}
         80%{stroke-dashoffset: 0; opacity: 1;}
         90%{stroke-dashoffset: 0; opacity: 0;}
         100%{stroke-dashoffset: 110; opacity: 0;}
     }
     @keyframes line-draw1-pencil {
         0%{transform: translate3d(0, 0, 0);}
         20%{transform: translate3d(0, 0, 0);}
         80%{transform: translate3d(110px, 0, 0);}
         100%{transform: translate3d(110px, 0, 0);}
     }
     @media (prefers-reduced-motion: reduce) {
         .line-draw1-line, .line-draw1-pencil {
             animation: none;
         }
     }
    </style><line class="line-draw1-line stroke2" x1="7" y1="91" x2="100" y2="91" stroke="#000" stroke-width="2px" style="animation-duration: 4s;"></line><g class="line-draw1-pencil" style="animation-duration: 4s;"><path class="fill1" d="M65.7069 17.1848C65.3147 16.8049 64.6902 16.8098 64.304 17.196L53.5 28L69.5 43.5L80.2816 32.7184C80.6765 32.3235 80.6714 31.6817 80.2703 31.2931L65.7069 17.1848Z" fill="#fff" stroke-width="2px"></path><path class="fill1" d="M53.5 28L17 64L33 80.5L69.5 43.5L53.5 28Z" fill="#fff" stroke-width="2px"></path><path class="fill1" d="M17 64L9 88.5L33 80.5L17 64Z" fill="#fff" stroke-width="2px"></path><path class="stroke1" d="M17 64L9 88.5L33 80.5M17 64L53.5 28M17 64L33 80.5M53.5 28L64.304 17.196C64.6902 16.8098 65.3147 16.8049 65.7069 17.1848L80.2703 31.2931C80.6714 31.6817 80.6765 32.3235 80.2816 32.7184L69.5 43.5M53.5 28L69.5 43.5M69.5 43.5L33 80.5" stroke="#000" stroke-width="2px"></path></g></svg>