<svg width="150" height="150" viewBox="0 0 150 150" fill="none" xmlns="http://www.w3.org/2000/svg" style="overflow: visible; width: 99px; height: 99px;"><style>
     .reading1-blob1 {animation:reading1-blob1 4.5s infinite ease-out; opacity: 0;}
     .reading1-blob2 {animation:reading1-blob2 4.5s 1s infinite ease-out; opacity: 0;}
     .reading1-blob3 {animation:reading1-blob3 4.5s 2s infinite ease-out; opacity: 0;}
     .reading1-blob4 {animation:reading1-blob4 4.5s 3s infinite ease-out; opacity: 0;}
     .reading1-blob5 {animation:reading1-blob5 4.5s 4s infinite ease-out; opacity: 0;}
     .reading1-blob6 {animation:reading1-blob6 4.5s 5s infinite ease-out; opacity: 0;}
     .reading1-blob7 {animation:reading1-blob7 4.5s 6s infinite ease-out; opacity: 0;}
     .reading1-blob8 {animation:reading1-blob8 4.5s 7s infinite ease-out; opacity: 0;}
     .reading1-blob9 {animation:reading1-blob2 4.5s 1s infinite ease-out; opacity: 0;}
     .reading1-blob10 {animation:reading1-blob3 4.5s 3s infinite ease-out; opacity: 0;}
     .reading1-blob11 {animation:reading1-blob4 4.5s 5s infinite ease-out; opacity: 0;}
     .reading1-blob12 {animation:reading1-blob5 4.5s 7s infinite ease-out; opacity: 0;}

     @keyframes reading1-blob1 {
         0%{transform: translate3d(0, 0, 0); opacity: 1;}
         20%{opacity: 1;}
         60% {opacity: 0;}
         100%{transform: translate3d(40px, -60px, 0); opacity: 0;}
     }
     @keyframes reading1-blob2 {
         0%{transform: translate3d(0, 0, 0); opacity: 1;}
         20%{opacity: 1;}
         60% {opacity: 0;}
         100%{transform: translate3d(30px, -60px, 0); opacity: 0;}
     }
     @keyframes reading1-blob3 {
         0%{transform: translate3d(0, 0, 0); opacity: 1;}
         20%{opacity: 1;}
         60% {opacity: 0;}
         100%{transform: translate3d(20px, -60px, 0); opacity: 0;}
     }
     @keyframes reading1-blob4 {
         0%{transform: translate3d(0, 0, 0); opacity: 1;}
         20%{opacity: 1;}
         60% {opacity: 0;}
         100%{transform: translate3d(10px, -60px, 0); opacity: 0;}
     }
     @keyframes reading1-blob5 {
         0%{transform: translate3d(0, 0, 0); opacity: 1;}
         20%{opacity: 1;}
         60% {opacity: 0;}
         100%{transform: translate3d(0px, -60px, 0); opacity: 0;}
     }
     @keyframes reading1-blob6 {
         0%{transform: translate3d(0, 0, 0); opacity: 1;}
         20%{opacity: 1;}
         60% {opacity: 0;}
         100%{transform: translate3d(-10px, -60px, 0); opacity: 0;}
     }
     @keyframes reading1-blob7 {
         0%{transform: translate3d(0, 0, 0); opacity: 1;}
         20%{opacity: 1;}
         60% {opacity: 0;}
         100%{transform: translate3d(-20px, -60px, 0); opacity: 0;}
     }
     @keyframes reading1-blob8 {
         0%{transform: translate3d(0, 0, 0); opacity: 1;}
         20%{opacity: 1;}
         60% {opacity: 0;}
         100%{transform: translate3d(-30px, -60px, 0); opacity: 0;}
     }
     
     @media (prefers-reduced-motion: reduce) {
         .reading1-blob1, .reading1-blob2, .reading1-blob3, .reading1-blob4, .reading1-blob5, .reading1-blob6, .reading1-blob7, .reading1-blob8, .reading1-blob9, .reading1-blob10, .reading1-blob11, .reading1-blob12 {
             animation: none;
         }
     }

    </style><circle class="fillCls16 reading1-blob12" cx="55.6945" cy="35.1037" r="1.03432" fill="#7885CC" stroke-width="2px" style="animation-duration: 4.5s;"></circle><circle class="fillCls16 reading1-blob11" cx="57.3187" cy="30.7616" r="0.693721" fill="#7885CC" stroke-width="2px" style="animation-duration: 4.5s;"></circle><circle class="fillCls16 reading1-blob10" cx="56.7417" cy="33.9703" r="2.21831" fill="#7885CC" stroke-width="2px" style="animation-duration: 4.5s;"></circle><circle class="fillCls16 reading1-blob9" cx="57.3508" cy="33.7936" r="1.72577" fill="#7885CC" stroke-width="2px" style="animation-duration: 4.5s;"></circle><circle class="fillCls16 reading1-blob8" cx="56.9291" cy="35.4238" r="2.26897" fill="#7885CC" stroke-width="2px" style="animation-duration: 4.5s;"></circle><circle class="fillCls15 reading1-blob7" cx="56.5212" cy="33.0192" r="2.26727" fill="#CC7E78" stroke-width="2px" style="animation-duration: 4.5s;"></circle><circle class="fillCls15 reading1-blob6" cx="57.7884" cy="34.8749" r="2.23767" fill="#CC7E78" stroke-width="2px" style="animation-duration: 4.5s;"></circle><circle class="fillCls15 reading1-blob5" cx="55.8381" cy="33.3899" r="1.98658" fill="#CC7E78" stroke-width="2px" style="animation-duration: 4.5s;"></circle><circle class="fillCls15 reading1-blob4" cx="56.0988" cy="31.6828" r="1.91525" fill="#CC7E78" stroke-width="2px" style="animation-duration: 4.5s;"></circle><circle class="fillCls15 reading1-blob3" cx="55.9971" cy="34.2441" r="2.67479" fill="#CC7E78" stroke-width="2px" style="animation-duration: 4.5s;"></circle><circle class="fillCls15 reading1-blob2" cx="56.8178" cy="33.477" r="2.46232" fill="#CC7E78" stroke-width="2px" style="animation-duration: 4.5s;"></circle><circle class="fillCls15 reading1-blob1" cx="56.5752" cy="34.4155" r="2.45016" fill="#CC7E78" stroke-width="2px" style="animation-duration: 4.5s;"></circle><path class="fillCls3" d="M24 121.25H21.5C20.3954 121.25 19.5 120.354 19.5 119.25V117.046H119V117.25C119 119.459 117.209 121.25 115 121.25H114.5L118.23 138.033C118.368 138.657 117.893 139.25 117.253 139.25H116.721C116.29 139.25 115.908 138.974 115.772 138.566L110 121.25H88.5V140.25C88.5 140.802 88.0523 141.25 87.5 141.25H87.3828C86.8785 141.25 86.4531 140.874 86.3905 140.374L84 121.25H28L22.7163 138.542C22.5878 138.963 22.1996 139.25 21.7599 139.25H21.7132C21.0843 139.25 20.6115 138.676 20.7316 138.059L24 121.25Z" fill="#24AC9F" stroke-width="2px" style="animation-duration: 4.5s;"></path><path class="fillCls2" d="M34 73.25H22L20 119.25H113C113 119.25 122.222 119.25 130 112.25C135 107.75 137 99.75 137 99.75L143.5 66.25C143.5 66.25 144.5 57.75 140 51.75C133.625 43.25 125 43.25 125 43.25H65.5C65.5 43.25 58.5 43.25 50.5 50.75C44.9028 56.2843 47.0751 62.8449 42.5 69.25C40 72.75 34 73.25 34 73.25Z" fill="#62C0B7" stroke-width="2px" style="animation-duration: 4.5s;"></path><path class="fillCls1" d="M96 119.251H20C20 119.251 16 119.25 13.5 116.751C10.5 113.75 10.25 109.25 10.25 109.25L11.5 82.25C11.5 82.25 13 73.2506 22 73.2506C30.7838 73.2506 31.5 82.25 31.5 82.25C31.5 82.25 31 90.25 33 93.2506C35.5 95.7506 37 97.25 41 98.2506H79C82 97.7502 85.6671 97.25 89 93.2502C91.5 90.25 92 81.7502 92 81.7502C92 81.7502 93 72.75 103 73.2506C111.5 74.4652 111.25 82.2502 111.25 82.2502L110 104.251C110 104.251 108.847 110.298 106.5 113.251C101.5 119.251 96 119.251 96 119.251Z" fill="#91D2BF" stroke-width="2px" style="animation-duration: 4.5s;"></path><path class="fillCls5" d="M59.8848 45.9214C60.4914 47.6672 62.377 49.9448 62.377 49.9448L58.8848 47.5386L56.2988 43.3042L59.3145 43.1714C59.3145 43.1714 59.5248 44.8854 59.8848 45.9214Z" fill="#F3C88E" stroke-width="2px" style="animation-duration: 4.5s;"></path><path class="fillCls13" d="M48.4766 25.5264L50.4941 17.7646H50.9792L51.9494 20.3453L49.0194 25.4293L58.6246 24.1874L64.9698 42.8544L55.0347 43.3978L48.4766 25.5264Z" fill="#3F62A3" stroke-width="2px" style="animation-duration: 4.5s;"></path><path class="fillCls14" d="M53.0273 18.499L48.9941 25.4448L56.0339 24.5215L54.1729 18.499H53.0273Z" fill="#CBDDFF" stroke-width="2px" style="animation-duration: 4.5s;"></path><path class="fillCls10" d="M66.0814 64.2417C66.5486 67.0854 67.4095 67.7417 67.4095 67.7417L69.2845 68.0229L70.8002 61.976L68.4252 54.0073C68.4252 54.0073 68.1701 53.8156 67.9877 53.8354C67.8438 53.851 67.6595 54.0073 67.6595 54.0073L67.4097 54.773C67.4097 54.773 65.7391 62.5721 66.0814 64.2417Z" fill="#A53C96" stroke-width="2px" style="animation-duration: 4.5s;"></path><path class="fillCls4" d="M57.7832 50.7573L69.2363 64.9917C69.2363 64.9917 69.466 62.0954 69.377 60.2417C69.2693 58.0006 68.5645 54.5542 68.5645 54.5542L67.7988 53.9136L62.3301 49.8823L59.3145 47.1948C59.3145 47.1948 58.4476 45.3653 57.6582 44.3511C57.1358 43.6799 56.1738 42.7573 56.1738 42.7573C56.1738 42.7573 57.3013 41.4819 57.2363 40.5151C57.1477 39.1966 56.291 38.7026 56.291 38.7026L56.1738 38.9761C56.1738 38.9761 56.2149 38.3099 56.0176 37.9604C55.8541 37.6711 55.4004 37.3745 55.4004 37.3745L54.2832 39.5229C54.2832 39.5229 54.8613 38.1479 55.0645 37.2729C55.0645 37.2729 55.1257 36.697 54.9395 36.4136C54.8024 36.2049 54.4395 36.0151 54.4395 36.0151L54.0879 37.0854L53.252 38.3042L52.6191 39.9761C52.6191 39.9761 52.2787 40.6484 52.2207 41.1167C52.1723 41.5079 52.2754 42.1245 52.2754 42.1245L51.3613 43.2339L52.3848 44.1948L51.7363 45.0073L55.1426 47.7886L57.7832 50.7573Z" fill="#FCD29A" stroke-width="2px" style="animation-duration: 4.5s;"></path><path class="fillCls7" d="M55.9238 106.242C56.9238 108.742 58.9238 109.242 58.9238 109.242L62.9238 98.2417L57.4238 91.2417L52.4238 97.7417C52.4238 97.7417 53.7819 99.8043 54.4238 101.242C55.2551 103.103 55.1667 104.349 55.9238 106.242Z" fill="#BCD4E8" stroke-width="2px" style="animation-duration: 4.5s;"></path><path class="fillCls4" d="M9.42383 142.242C8.43165 142.325 6.92383 141.742 6.92383 141.742C6.92383 141.742 11.7762 138.728 14.4238 136.242C17.3582 133.486 18.6433 131.559 20.9238 128.242C26.4238 120.242 29.6555 113.55 35.4238 104.242C37.107 101.526 39.6315 97.5034 40.2719 96.4835C40.372 96.3241 40.4238 96.1418 40.4238 95.9536V82.2417H42.4238L50.4238 82.7417L58.9238 92.2417L57.135 93.1361C56.9961 93.2056 56.8753 93.3064 56.7822 93.4306L55.427 95.2374L55.4227 95.2432C55.3534 95.3337 52.1116 99.5782 50.9238 102.742C49.9411 105.359 50.1008 107.029 49.4238 109.742C48.5859 113.099 47.7411 114.88 46.9238 118.242C46.2183 121.144 45.2183 122.762 45.4238 125.742C45.577 127.963 46.9238 129.242 46.9238 131.242C46.9238 132.219 46.297 133.53 46.0359 134.033C45.9638 134.172 45.8565 134.287 45.7271 134.375C45.0361 134.845 42.693 136.473 41.4238 137.742C40.6161 138.549 39.9275 140.028 39.6104 140.778C39.4879 141.068 39.2466 141.295 38.9417 141.373C38.4158 141.509 37.5638 141.706 36.9238 141.742C35.5452 141.818 32.9512 142.539 33.4238 141.242L35.6155 140.365C35.8157 140.285 35.9845 140.143 36.0947 139.957C36.6768 138.979 38.5918 135.679 39.4238 133.242C40.3889 130.415 40.5977 128.711 40.9238 125.742C41.1801 123.408 41.1121 120.224 41.0275 118.2C40.9934 117.384 40.0461 116.978 39.4201 117.503L25.425 129.241L25.4235 129.242C25.3996 129.262 24.0879 130.372 23.4238 131.242C22.257 132.77 22.3374 134.049 21.4238 135.742C20.883 136.744 20.7791 137.49 19.9238 138.242C18.5716 139.43 17.0963 138.576 15.4238 139.242C13.9613 139.824 13.3508 140.577 11.9238 141.242C10.9707 141.686 10.4717 142.154 9.42383 142.242Z" fill="#FCD29A" stroke-width="2px" style="animation-duration: 4.5s;"></path><path class="fillCls12" d="M105.172 43.25H109.312L110.611 38.6792L93.4238 19.6792L83.2051 28.6167C83.2051 28.6167 82.3881 31.2295 81.4863 32.7104C80.4785 34.3657 78.2363 36.4604 78.2363 36.4604L83.5176 35.7729L92.3301 34.7104C95.8926 35.7313 103.105 37.8729 103.455 38.2729C103.805 38.6729 104.411 41.75 105.172 43.25Z" fill="#AF5B8E" stroke-width="2px" style="animation-duration: 4.5s;"></path><path class="fillCls6" d="M39.9238 77.2417L39.4238 87.2417L45.9238 87.7417L47.9238 84.2417C47.9238 84.2417 55.5307 88.2093 57.9238 92.7417C59.2513 95.2558 59.7118 96.954 59.9238 99.7417C60.2068 103.461 58.9238 109.242 58.9238 109.242C58.9238 109.242 64.0518 108.312 66.9238 106.742C71.0429 104.49 71.6319 101.009 75.4238 98.2417C78.3192 96.1285 80.1037 95.0928 83.4238 93.7417C87.1524 92.2244 90.1562 91.1562 90.1562 91.1562C90.7969 89.6719 91.3354 87.6802 91.5312 85.8906C92.2031 79.75 95.9238 72.2417 95.9238 72.2417C95.9238 72.2417 91.7895 73.4568 89.4238 73.2417C83.9238 72.7417 76.4238 70.2417 76.4238 70.2417H47.9238C47.9238 70.2417 44.4238 70.7417 42.4238 72.7417C40.4238 74.7417 39.9238 77.2417 39.9238 77.2417Z" fill="#F0FCFF" stroke-width="2px" style="animation-duration: 4.5s;"></path><path class="fillCls9" d="M68.9238 68.8417C67.4238 68.2417 67.4238 67.7417 67.4238 67.7417C67.4238 67.7417 69.4238 68.2417 69.4238 62.2417C69.4238 58.2417 68.4238 54.0417 68.4238 54.0417C68.4238 54.0417 69.9924 55.3341 70.9238 56.2417C71.6558 56.955 72.7238 58.1417 72.7238 58.1417C72.7238 58.1417 73.7174 53.3834 73.9238 50.2417C74.1542 46.7345 73.9238 41.2417 73.9238 41.2417C73.9238 41.2417 73.7465 38.7417 76.9238 36.7417C78.2865 35.8839 80.8105 35.6636 80.8105 35.6636L80.4238 38.2417C78.9238 48.2417 76.4238 48.2417 76.9238 51.2417C77.2574 54.5774 78.4811 56.5778 79.2588 57.54C79.6437 58.0163 79.9221 58.5976 79.8937 59.2093C79.8266 60.656 79.6113 63.4085 78.9238 65.2417C77.4238 69.2417 76.4238 70.2417 76.4238 70.2417H70.4238C70.4238 70.2417 69.9238 69.3417 68.9238 68.8417Z" fill="#292B68" stroke-width="2px" style="animation-duration: 4.5s;"></path><path class="fillCls5" d="M89.3848 37.9683C84.1426 38.0698 80.8145 35.6558 80.8145 35.6558C80.8145 35.6558 83.3301 35.1948 85.377 34.2417C86.7787 33.589 85.7051 31.5386 86.3613 29.5698L91.8848 24.4058C91.8848 24.4058 91.7207 27.9292 91.8457 30.2026C91.9335 31.7986 91.8143 33.0285 92.9629 34.1401C93.3839 34.5476 95.8223 35.2886 95.8223 35.2886L99.7754 36.5229C99.7754 36.5229 94.002 37.7104 89.3848 37.9683Z" fill="#F3C88E" stroke-width="2px" style="animation-duration: 4.5s;"></path><path class="fillCls8" d="M81.8629 36.0098C81.8475 36.3807 81.9489 36.9566 81.9489 36.9566L82.9248 37.2557C82.9248 37.2557 82.8112 36.6332 82.8282 36.2321C82.8481 35.7629 83.0696 35.0542 83.0696 35.0542L81.9489 35.363C81.9489 35.363 81.8735 35.7552 81.8629 36.0098Z" fill="#2F3A78" stroke-width="2px" style="animation-duration: 4.5s;"></path><path class="fillCls8" d="M96.3813 36.4526C96.4065 36.0931 96.5273 35.5078 96.5273 35.5078L97.5039 35.8047C97.5039 35.8047 97.4276 36.1547 97.4043 36.3315C97.375 36.5544 97.3656 36.8745 97.3656 36.8745L96.3813 37.1284C96.3813 37.1284 96.3628 36.7159 96.3813 36.4526Z" fill="#2F3A78" stroke-width="2px" style="animation-duration: 4.5s;"></path><path class="fillCls8" d="M109.924 67.7417C109.924 67.7417 107.311 71.4768 105.924 73.7417C105.124 75.0481 104.295 77.6585 103.6 79.0911C102.631 81.0893 101.924 81.7417 101.924 81.7417L99.1241 68.7417C99.1241 68.7417 102.004 63.3963 101.924 60.7417C101.842 58.0233 99.4241 54.2417 99.4241 54.2417L98.9241 68.7417L98.4241 71.2417L87.9241 73.2417C87.9241 73.2417 84.2511 72.4536 81.9241 71.8417C79.7607 71.2728 76.4241 70.2417 76.4241 70.2417C76.4241 70.2417 77.7102 67.6985 78.4062 65.8125C79.3624 63.2219 79.863 61.6982 79.594 59.0938C79.2972 56.2188 76.5587 56.1277 76.4248 51.25C76.3319 47.8686 78.4925 46.0588 79.2972 43.0781C80.0258 40.379 80.8108 35.6558 80.8108 35.6558C80.8108 35.6558 83.4241 37.6653 88.4241 37.9417C91.7614 38.1262 97.9241 36.7417 97.9241 36.7417C97.9241 36.7417 100.681 36.0032 102.924 37.2417C104.546 38.1371 105.424 39.7417 105.424 39.7417L108.424 51.7417C108.424 51.7417 110.574 59.7417 110.574 63.2417C110.574 66.2417 109.924 67.7417 109.924 67.7417Z" fill="#2F3A78" stroke-width="2px" style="animation-duration: 4.5s;"></path><path class="fillCls9" d="M96.4238 61.7417C98.4238 59.2417 99.4141 54.1328 99.4141 54.1328L100.547 56.1172C100.547 56.1172 100.074 57.5397 100.074 61.7417C100.074 65.7417 100.324 66.2417 100.324 66.2417C100.324 66.2417 98.4238 71.2417 95.9238 72.2417C91.9238 73.6001 87.9238 73.2417 87.9238 73.2417C87.9238 73.2417 90.4238 72.2417 92.4238 70.7417C93.4238 70.2417 95.4238 67.8417 94.9238 67.3417C94.4238 66.8417 91.6238 68.2417 91.6238 66.2417C91.6238 64.2417 95.0031 64.1096 96.4238 61.7417Z" fill="#292B68" stroke-width="2px" style="animation-duration: 4.5s;"></path><path class="fillCls10" d="M101.917 71.2422C101.077 69.9695 100.424 68.7417 98.917 68.7422C97.842 69.1172 97.9233 71.242 97.9233 71.242C97.9233 71.242 98.6602 74.2198 98.917 76.2422C99.1138 77.7918 98.917 78.742 98.917 80.2422C98.917 81.3468 99.6581 82.6218 100.917 82.442C101.883 82.3039 102.267 80.742 102.317 80.2422C102.417 79.242 102.694 77.8099 102.667 76.242C102.633 74.2679 102.417 72.742 101.917 71.2422Z" fill="#A53C96" stroke-width="2px" style="animation-duration: 4.5s;"></path><path class="fillCls4" d="M95.4238 72.7417C96.8844 71.4743 98.8529 69.3607 99.321 68.8536C99.3843 68.7849 99.4802 68.7573 99.5677 68.79C99.8994 68.9142 100.741 69.3033 101.424 70.2417C101.837 70.8103 102.071 71.7599 102.147 72.1083C102.165 72.1915 102.136 72.2768 102.074 72.335L98.461 75.707C98.4365 75.7299 98.4168 75.7575 98.4032 75.7882L96.4379 80.2099C96.4286 80.231 96.4222 80.2533 96.4189 80.2761L95.9545 83.5271C95.9369 83.6502 95.8314 83.7417 95.707 83.7417H95.6738C95.5358 83.7417 95.4238 83.6298 95.4238 83.4917V81.2417L94.4808 84.0708C94.4468 84.1728 94.3512 84.2417 94.2436 84.2417H94.1738C94.0358 84.2417 93.9238 84.1298 93.9238 83.9917V80.7417L92.9712 84.5523C92.9433 84.6636 92.8434 84.7417 92.7286 84.7417H92.6738C92.5358 84.7417 92.4238 84.6298 92.4238 84.4917V80.7417L91.5406 83.8332C91.4882 84.0165 91.2582 84.0761 91.1234 83.9413L91.0122 83.8301C90.9566 83.7744 90.9304 83.6959 90.9415 83.618L91.4196 80.2714C91.4224 80.2517 91.4276 80.2324 91.435 80.2139L92.4238 77.7417L90.5973 79.1116C90.4978 79.1863 90.3585 79.1764 90.2705 79.0884L90.067 78.8848C89.9835 78.8014 89.969 78.6723 90.0341 78.5738C90.4453 77.9518 91.9178 75.7618 92.9238 74.7417C93.8018 73.8515 94.4795 73.5611 95.4238 72.7417Z" fill="#FCD29A" stroke-width="2px" style="animation-duration: 4.5s;"></path><path class="fillCls4" d="M89.9395 27.4761C88.4048 29.0596 85.9863 30.0698 84.9238 30.0698C83.4181 30.0698 82.7431 28.9112 81.9238 27.6479C81.3125 26.7054 80.9395 23.8667 80.9395 23.8667L79.002 16.4292L90.0801 13.9761L93.0176 19.7729C93.0176 19.7729 94.1288 19.7729 93.8457 22.0542C93.6208 23.8667 91.877 24.4136 91.877 24.4136C91.877 24.4136 90.9244 26.4598 89.9395 27.4761Z" fill="#FCD29A" stroke-width="2px" style="animation-duration: 4.5s;"></path><path class="fillCls11" d="M112.372 40.2306L112.346 43.2539H109.316L109.342 42.7526C109.342 42.7526 109.547 40.1396 108.887 38.6828C108.191 37.1469 107.239 36.598 105.923 35.5438C104.472 34.381 103.477 33.9647 101.797 33.1672C100.311 32.4619 97.8755 31.6323 97.8755 31.6323C97.8755 31.6323 96.3456 31.0436 95.0632 28.6715C94.2275 27.1257 94.1522 24.265 94.1522 24.265L94.2314 22.2546L93.886 21.4228C93.886 21.4228 93.9274 19.7876 92.9758 19.7876C92.1294 19.7876 91.546 20.7345 91.4105 21.5515C91.1366 22.2645 91.2718 23.5023 91.2718 23.5023C91.2718 23.5023 91.0408 22.8194 91.0008 22.3173C90.9582 21.7817 91.2824 21.0637 91.326 20.2515C91.3463 19.8731 91.3525 19.6444 91.326 19.2712C91.2723 18.5151 90.8361 17.4222 90.8361 17.4222L89.8101 14.5944C89.8101 14.5944 89.5043 15.949 89.4276 16.8324C89.3755 17.432 89.3941 18.3435 89.3941 18.3435L85.7836 17.9944C85.7836 17.9944 85.6442 17.3633 85.6163 16.9519C85.5849 16.4906 85.6545 15.852 85.6545 15.852C85.572 16.0798 85.4938 16.2753 85.4395 16.5586C85.3423 17.0645 85.4395 17.8778 85.4395 17.8778L84.3006 17.7886C84.3006 17.7886 84.3245 17.1377 84.3652 16.7226C84.408 16.2862 84.5184 15.6101 84.5184 15.6101C84.5184 15.6101 83.7829 17.8038 83.5579 17.8778C83.2922 17.9651 83.0918 17.9471 82.845 17.9471C81.9972 17.9471 80.7168 18.2187 80.7168 18.2187C80.7168 19.0934 80.6785 19.8683 80.7168 20.9062C80.7603 22.086 80.8711 22.9114 80.9635 23.8885L79.7559 22.6601C79.7559 22.6601 80.2363 23.4765 80.4316 24.2773C80.5582 24.6944 80.5612 25.0863 80.5872 25.6093C80.6067 26.0003 80.5215 26.2734 80.5215 26.7109C80.5215 27.1105 80.6862 27.7207 80.6862 27.7207C80.6862 27.7207 80.4816 27.3882 80.3926 27.1562C80.1832 26.6102 80.3496 26.0037 80.3496 25.2649C80.3496 24.8515 80.257 24.6351 80.1504 24.2773C79.895 23.42 79.1712 22.2546 79.1712 22.2546C79.1712 22.2546 78.2756 20.3751 78.25 18.2838C78.2503 15.4922 80.3005 12.2631 80.3005 12.2631C80.3005 12.2631 81.6543 10.0366 83.752 9.0859C85.3605 8.35692 86.5029 8.24364 88.2422 8.54977C89.0142 8.68567 90.1582 9.1484 90.1582 9.1484C90.1582 9.1484 89.6948 8.80784 89.3652 8.64849C88.9652 8.45509 88.2422 8.25396 88.2422 8.25396C88.2422 8.25396 89.1035 8.19977 89.8691 8.4922C90.6348 8.78463 90.5882 9.10685 91.1504 9.26955C91.7826 9.45253 92.8356 9.24307 92.8356 9.24307C95.3711 9.29473 95.8682 10.4052 97.1336 11.9264C98.2971 13.325 98.3933 14.4838 98.9543 16.2145C99.7007 18.5174 99.2485 20.0529 100.162 22.2947C100.814 23.8943 101.275 24.7916 102.371 26.1269C103.679 27.7207 104.885 28.6613 106.435 30.3428L106.479 30.3905C108.194 32.2509 109.055 33.1852 110.778 35.299C111.733 37.0835 112.216 37.6042 112.372 40.2306Z" fill="#ED948D" stroke-width="2px" style="animation-duration: 4.5s;"></path></svg>