<svg width="150" height="150" viewBox="0 0 150 150" fill="none" xmlns="http://www.w3.org/2000/svg" style="width: 99px; height: 99px;"><style>
     .working2-stroke {animation:working2-stroke 5s infinite; stroke-dasharray: 60;}

     @keyframes working2-stroke {
         0%{stroke-dashoffset: 70;}
         10%{stroke-dashoffset: 70;}
         70%{stroke-dashoffset: 0; opacity: 1;}
         90%{stroke-dashoffset: 0; opacity: 0;}
         100%{stroke-dashoffset: 60; opacity: 0;}
     }
     
     @media (prefers-reduced-motion: reduce) {
         .working2-stroke {
             animation: none;
         }
     }

     .working2-bar1 {animation:working2-bar1 5s infinite; transform-origin: 97px 26px;}
     .working2-bar2 {animation:working2-bar2 5s infinite; transform-origin: 96px 31px;}
     .working2-bar3 {animation:working2-bar3 5s infinite; transform-origin: 95px 36px;}
     @keyframes working2-bar1 {
         0%{transform:scaleX(1);}
         20%{transform:scaleX(.5);}
         50%{transform:scaleX(1);}
         80%{transform:scaleX(.5);}
         100%{transform:scaleX(1);}
     }

     @keyframes working2-bar2 {
         0%{transform:scaleX(.25);}
         20%{transform:scaleX(1);}
         50%{transform:scaleX(.25);}
         80%{transform:scaleX(1);}
         100%{transform:scaleX(.25);}
     }

     @keyframes working2-bar3 {
         0%{transform:scaleX(.75);}
         20%{transform:scaleX(.75);}
         50%{transform:scaleX(1);}
         80%{transform:scaleX(.75);}
         100%{transform:scaleX(.75);}
     }

     @media (prefers-reduced-motion: reduce) {
         .working2-bar1, .working2-bar2, .working2-bar3 {
             animation: none;
         }
     }
     
    </style><g class="working2" style="animation-duration: 5s;"><path class="fillCls2" d="M19.2333 63.0435H145V66.7375H19.2333V63.0435Z" fill="#FFEBE4" stroke-width="2px"></path><path class="fillCls1" d="M109.136 66.7378H142.693V117.668H109.136V66.7378Z" fill="#FEE0DA" stroke-width="2px"></path><path class="fillCls1" d="M20.9187 66.7378H34.6191V117.668H20.9187V66.7378Z" fill="#FEE0DA" stroke-width="2px"></path><path class="fillCls3" d="M85.1677 62.9142H56.691L61.3183 41.9034C61.3507 41.7629 61.4299 41.6375 61.543 41.548C61.6561 41.4585 61.7962 41.4101 61.9405 41.4109H89.121C89.2162 41.4083 89.3107 41.4277 89.3973 41.4674C89.4838 41.5072 89.5601 41.5663 89.6202 41.6402C89.6803 41.7141 89.7227 41.8007 89.744 41.8936C89.7653 41.9864 89.765 42.0829 89.7432 42.1756L85.1677 62.9142Z" fill="#5FCCF4" stroke-width="2px"></path><path class="fillCls4" d="M88.707 42.3311L84.3649 61.9938H57.8972L62.2394 42.3311H88.707Z" fill="#D6F4FF" stroke-width="2px"></path><path class="fillCls3" d="M46.0254 62.9399L85.0658 62.9399V60.9568L47.8011 60.9568C47.3336 60.9568 46.8852 61.1425 46.5547 61.4731C46.2241 61.8037 46.0384 62.2521 46.0384 62.7196V62.9399H46.0254Z" fill="#5FCCF4" stroke-width="2px"></path><path class="fillCls13" d="M115.751 53.7982L63.509 53.8516L72.0614 14.0843L124.331 14.058L115.751 53.7982Z" fill="#B4EBFF" stroke-width="2px"></path><path class="working2-stroke strokeCls1" d="M76.689 46.7688L82.9653 41.9106L87.3658 47.1047L96.5248 40.0365L100.136 45.414L106.645 39.9169" stroke="#F58F87" stroke-width="2px" stroke-linecap="round"></path><path class="working2-bar1 fillCls14" d="M115.091 21.9694L97.808 21.987L98.2784 19.7571L115.562 19.7684L115.091 21.9694Z" fill="#F58F87" stroke-width="2px"></path><path class="working2-bar2 fillCls14" d="M113.661 26.8348L96.349 26.8527L96.8483 24.6226L114.132 24.6339L113.661 26.8348Z" fill="#F58F87" stroke-width="2px"></path><path class="working2-bar3 fillCls14" d="M112.316 31.6981L95.0033 31.716L95.4737 29.4861L112.786 29.4682L112.316 31.6981Z" fill="#F58F87" stroke-width="2px"></path><path class="fillCls14" d="M82.6505 18.3412L82.5266 18.3424L81.8955 21.5079L81.9781 21.5072C84.0019 21.5088 85.2774 23.1903 84.822 25.2803C84.3666 27.3703 82.3791 29.0411 80.3553 29.0394C78.3315 29.0377 77.0979 27.4179 77.4712 25.3906L74.3537 25.4818C73.6659 29.2054 76.0277 32.219 79.6622 32.2055C83.2967 32.1921 87.1086 29.0793 87.9196 25.2719C88.7306 21.4645 86.3676 18.327 82.6505 18.3412Z" fill="#F58F87" stroke-width="2px"></path><path class="fillCls15" d="M84.8189 25.2802C84.3838 27.3287 82.4374 28.9784 80.4348 29.0385L79.8243 32.2039C81.5999 32.1666 83.4309 31.4266 84.9468 30.1114C86.4374 28.8647 87.4801 27.1654 87.9165 25.2718L84.8189 25.2802Z" fill="#A53C96" stroke-width="2px"></path><path class="fillCls14" d="M77.462 25.4812C77.8971 23.4327 79.91 21.5465 81.9126 21.4864L82.5231 18.3211C80.7475 18.3584 78.9165 19.0983 77.4006 20.4136C75.91 21.6603 74.8008 23.596 74.3644 25.4896L77.462 25.4812Z" fill="#F58F87" stroke-width="2px"></path><path class="fillCls8" d="M71.7156 59.4276C71.7156 59.4276 71.9748 60.5293 72.1562 60.6848C72.0516 60.7287 71.9392 60.7513 71.8257 60.7513C71.7122 60.7513 71.5999 60.7287 71.4952 60.6848L71.21 60.296L71.2878 60.6848C71.2878 60.6848 70.8212 60.9441 70.6268 60.6848C70.4323 60.4256 70.4323 59.5572 70.4323 59.5572L71.6119 59.1035L71.7156 59.4276Z" fill="#955214" stroke-width="2px"></path><path class="fillCls5" d="M43.8216 121.073C43.8216 121.073 43.4846 122.174 43.5883 122.835C43.692 123.497 45.6232 124.106 47.3601 123.678C49.097 123.25 50.3024 122.771 50.7172 122.006C51.1319 121.241 51.5986 120.593 52.3633 120.489C53.128 120.386 55.7852 120.373 55.7852 120.373L54.4631 118.804L49.9524 118.532L45.2344 120.489L43.8216 121.073Z" fill="#FCD29A" stroke-width="2px"></path><path class="fillCls12" d="M49.0324 110.574C49.0324 110.574 48.6435 113.049 49.0324 113.568C49.4212 114.086 49.6286 114.877 49.2916 115.305C48.9546 115.732 45.442 117.366 44.2236 116.549C44.2236 116.549 43.394 115.201 43.8607 113.996C44.3273 112.79 43.6792 112.998 43.7181 112.466L43.8607 110.574L47.1659 110.003L49.0324 110.574Z" fill="#F8AEA4" stroke-width="2px"></path><path class="fillCls9" d="M49.4597 114.579C49.4597 114.579 52.752 116.186 54.1777 115.953C54.9769 115.802 55.7944 115.776 56.6016 115.875V119.31C56.6016 119.31 55.2665 120.075 52.5316 120.049C52.2301 120.052 51.9317 120.109 51.6502 120.217C50.9762 120.49 49.7837 121.021 49.2912 121.682C48.5783 122.628 43.9899 122.81 43.8214 121.825C43.8214 121.825 43.3677 117.755 43.7177 116.614L43.9769 116.018C43.9769 116.018 45.2212 116.731 46.3878 116.472C47.5543 116.212 49.2912 115.616 49.4597 114.579Z" fill="#7B8FB5" stroke-width="2px"></path><path class="fillCls5" d="M71.7421 121.384C71.7421 121.384 72.0402 122.161 71.3921 123.471C70.744 124.78 69.0202 125.856 66.8426 125.856C63.4855 125.856 63.2781 125.454 62.332 125.869C61.3858 126.283 60.7117 127.113 57.6658 127.165C56.0067 127.191 54.879 127.035 54.205 126.88C53.9672 126.829 53.7538 126.699 53.6005 126.51C53.4471 126.321 53.3632 126.086 53.3625 125.843V125.117L57.8732 124.274L69.6812 122.654L71.7421 121.384Z" fill="#FCD29A" stroke-width="2px"></path><path class="fillCls12" d="M55.8628 115.875C55.8628 115.875 55.435 117.418 55.2276 117.975C55.0203 118.533 55.5776 118.675 55.2276 119.583C54.8777 120.49 55.1628 121.332 55.8628 121.125L61.1122 119.518L61.877 118.52L61.6177 117.249L55.8628 115.875Z" fill="#F8AEA4" stroke-width="2px"></path><path class="fillCls7" d="M51.0293 99.4399L49.2924 110.496C49.2924 110.496 43.9652 112.103 42.9801 111.468L42.2932 100.555L51.0293 99.4399Z" fill="#EAF6F4" stroke-width="2px"></path><path class="fillCls7" d="M67.8924 81.2548C63.8095 80.5289 48.1 81.5788 48.1 81.5788L43.4468 81.2548H34.2052L32.8442 83.2638C32.8442 83.2638 32.0017 89.2262 37.6659 94.1775C43.3301 99.1288 57.7694 94.2423 59.1822 93.5165C60.595 92.7906 61.0746 92.3629 61.0746 92.3629L62.0208 92.8036C61.7097 92.7128 60.2321 96.1347 59.1822 97.716C58.1323 99.2973 54.9697 116.303 54.9697 116.303C55.5918 117.029 61.619 117.249 61.619 117.249C61.943 116.407 74.2955 94.1516 75.0343 88.4355C75.7731 82.7194 71.9753 81.9806 67.8924 81.2548Z" fill="#EAF6F4" stroke-width="2px"></path><path class="fillCls9" d="M61.8771 118.299C61.8771 118.299 62.8622 119.504 63.7565 120.075C64.6509 120.645 69.5245 120.023 70.367 120.075C71.2095 120.126 71.9872 121.176 71.6761 121.863C71.365 122.55 70.03 125.22 66.8155 125.168C63.601 125.117 62.8622 124.702 61.4364 125.272C60.0106 125.842 55.824 126.478 54.4112 125.752L53.3613 125.117C53.3613 125.117 53.5817 120.399 54.4631 119.66C55.3444 118.921 55.3185 119.323 55.3185 119.323C55.3185 119.323 55.6685 120.334 56.9776 120.126C58.2867 119.919 61.0087 119.66 61.8771 118.299Z" fill="#7B8FB5" stroke-width="2px"></path><path class="fillCls11" d="M26.1163 136.406L31.1584 107.32C31.476 105.809 32.1516 104.395 33.1286 103.199L34.6191 101.371L33.984 100.853L32.4805 102.667C31.4245 103.973 30.6918 105.509 30.3418 107.152L25.2997 136.238L26.1163 136.406Z" fill="#252E87" stroke-width="2px"></path><path class="fillCls11" d="M63.9119 133.101L58.5329 103.821C58.2153 102.309 57.5396 100.896 56.5627 99.6991L55.0591 97.8845L55.7072 97.353L57.1978 99.1806C58.2625 100.478 59.0004 102.011 59.3494 103.652L64.7285 132.933L63.9119 133.101Z" fill="#252E87" stroke-width="2px"></path><path class="fillCls11" d="M12.3905 128.396L19.0009 104.495C19.3006 103.194 19.9249 101.99 20.8155 100.995L22.1895 99.4397L21.5932 98.999L20.2193 100.541C19.2588 101.625 18.5819 102.93 18.2491 104.339L11.6516 128.24L12.3905 128.396Z" fill="#252E87" stroke-width="2px"></path><path class="fillCls8" d="M64.0806 65.6102C64.0806 65.6102 65.1305 65.9472 65.7916 65.6102C66.4526 65.2732 68.4876 60.4904 68.8375 60.3608C69.2151 60.4961 69.6203 60.5362 70.0171 60.4774C70.7429 60.3608 71.3262 59.7904 71.3262 59.7904H72.0261C72.0261 59.7904 72.1687 60.5681 72.4409 60.7107C72.7131 60.8533 73.3223 60.7107 73.3223 60.7107C73.3223 60.7107 72.4798 59.0905 72.3372 58.3906C72.3372 58.3906 71.6761 57.6647 71.1447 57.6907C71.0251 57.7127 70.9034 57.7214 70.7818 57.7166C70.6522 57.7036 70.6911 57.5999 70.5744 57.561C70.545 57.5502 70.5136 57.5457 70.4823 57.5479C70.451 57.5502 70.4205 57.559 70.3929 57.574C70.2374 57.6129 70.0819 57.7036 69.9263 57.7295C69.7708 57.7555 69.343 57.6259 69.0708 57.6907C68.9287 57.7367 68.7901 57.793 68.6561 57.8592C68.4876 57.924 67.334 58.7794 62.8882 59.272C62.6808 59.2979 62.4734 62.2143 62.4734 62.2143L64.0806 65.6102Z" fill="#955214" stroke-width="2px"></path><path class="fillCls8" d="M54.3863 26.5176C54.3863 26.725 54.7881 36.0962 49.9664 38.9089C49.7201 39.0385 49.2795 38.9218 49.0073 38.87C48.3981 38.7533 47.413 38.7663 46.7649 39.1163C45.8576 39.6088 46.0001 40.7235 46.0001 40.7235L38.0936 38.4163C38.0936 38.4163 39.973 34.7093 39.623 29.2525C39.2731 23.7956 45.5724 23.0957 45.5724 23.0957L52.2995 24.0678L54.3863 26.5176Z" fill="#955214" stroke-width="2px"></path><path class="fillCls9" d="M49.2795 28.9674C49.2795 28.9674 50.0572 29.6025 51.1719 27.7101C52.2866 25.8177 52.2995 27.5027 53.1291 27.7101C53.6788 27.8283 54.2494 27.806 54.7882 27.6453C54.7882 27.6453 56.875 28.3452 56.875 26.4528C56.875 25.5714 56.5121 24.0679 54.3993 24.0679C54.3993 24.0679 55.864 21.0608 50.5497 20.9182C50.5497 20.9182 48.7221 16.7964 44.1726 17.8463C44.1726 17.8463 41.658 16.589 39.7008 19.9461C39.7008 19.9461 35.8512 21.5533 36.616 27.2176C37.3807 32.8818 38.5732 33.0244 38.5732 33.0244C38.5732 33.0244 38.5084 34.5798 40.8933 34.5668C42.4358 34.5538 44.3152 33.7243 44.3152 33.7243L45.2225 32.6096C45.2225 32.6096 47.9574 32.6744 47.0501 31.2097C46.1428 29.7451 46.3113 28.0082 47.1149 27.5675C48.2685 26.9454 49.2147 27.9175 49.2795 28.9674Z" fill="#7B8FB5" stroke-width="2px"></path><path class="fillCls11" d="M39.3503 96.0052C39.3503 96.0052 45.1312 96.5626 49.4215 96.07C53.7118 95.5775 59.1816 93.5166 59.1816 93.5166L55.4616 96.7829L50.601 98.6624H43.1222L39.3503 96.0052Z" fill="#252E87" stroke-width="2px"></path><path class="fillCls5" d="M36.9395 38.0019C36.9395 38.0019 38.1967 35.954 38.093 35.3188C37.9894 34.6837 42.1241 37.8334 43.3944 38.0019C44.6646 38.1704 47.6976 39.5184 47.6976 39.5184V40.5165C47.6976 40.5165 51.7805 42.5644 53.5174 45.5067C55.2542 48.449 59.1038 55.9667 59.7779 57.4832C59.7779 57.4832 60.5556 56.6796 61.3851 57.3406C62.4739 58.2091 61.5406 58.6238 61.5406 58.6238C61.5406 58.6238 61.4888 57.0425 62.1239 57.1592C62.759 57.2758 66.0642 60.1404 65.118 62.8753C64.1718 65.6102 64.1718 66.5434 62.1758 66.1286C60.1797 65.7139 52.1434 63.3808 49.8233 60.8403C49.8233 60.8403 48.9031 66.8674 47.3736 70.8467C45.8441 74.8259 47.4773 74.0482 46.6477 76.5239C45.8182 78.9995 45.0664 78.8829 46.5959 80.2438C48.1254 81.6048 49.0586 81.19 46.6477 82.7065C44.2369 84.2231 38.0412 86.0118 35.0989 83.1343C32.1566 80.2568 24.4963 63.7178 24.4963 63.7178C24.4963 63.7178 23.913 58.4165 24.4963 57.0944C25.0796 55.7723 25.1185 55.3705 24.8074 53.4262C24.4963 51.482 24.0427 44.1327 25.3518 42.1885C26.0776 41.0997 28.6959 39.8295 31.003 39.311C33.3102 38.7926 36.9395 38.0019 36.9395 38.0019Z" fill="#FCD29A" stroke-width="2px"></path><path class="fillCls10" d="M8.385 60.2311C8.385 60.2311 24.1334 58.9608 26.7516 60.2311C29.3699 61.5013 34.1009 83.3935 36.9395 88.8244C39.7781 94.2553 45.3256 97.9364 50.4714 96.7828C55.6172 95.6293 59.1816 93.5165 59.1816 93.5165V94.7608C59.1829 95.0237 59.1253 95.2835 59.0132 95.5212C58.901 95.7589 58.7372 95.9686 58.5335 96.1348C56.4467 97.8198 49.4085 102.719 38.6115 102.019C25.598 101.19 22.8631 100.866 19.4024 98.6623C15.9416 96.4588 9.4349 88.4615 7.12773 77.7163C5.15756 68.5783 3.03185 61.268 8.385 60.2311Z" fill="#87A6F5" stroke-width="2px"></path><path class="fillCls5" d="M41.451 70.6001C45.6506 69.278 44.1082 68.4355 45.5728 64.7285C47.0375 61.0214 44.7562 55.772 44.7562 55.772C46.532 58.5717 49.8242 60.84 49.8242 60.84C49.8242 60.84 48.904 66.8671 47.3745 70.8463C45.845 74.8256 47.4782 74.0479 46.6486 76.5235C45.8191 78.9992 45.0673 78.8826 46.5968 80.2435C48.1263 81.6045 49.0206 81.2027 46.7523 82.6414C46.7282 82.5233 46.6979 82.4065 46.6616 82.2915C46.2727 81.0342 37.6662 81.7341 40.7511 79.9065C43.8359 78.0789 41.7232 76.0699 39.766 74.0349C37.8088 71.9999 37.2514 71.9351 41.451 70.6001Z" fill="#FCD29A" stroke-width="2px"></path></g></svg>