<svg width="100" height="100" viewBox="0 0 100 100" fill="none" xmlns="http://www.w3.org/2000/svg" style="width: 150px; height: 150px;"><style>
     .line-token1 {animation:line-token1 1.6s infinite;}
     @keyframes line-token1 {
         0%{transform: translate3d(0, -2px, 0);}
         50%{transform: translate3d(0, 2px, 0);}
         100%{transform: translate3d(0, -2px, 0);}
     }
     @media (prefers-reduced-motion: reduce) {
         .line-token1 {
             animation: none;
         }
     }
    </style><path class="fill1" d="M23.5 84.2742V88.0215C23.5 88.5738 23.9477 89.0215 24.5 89.0215H41.5463C42.0801 89.0215 42.5184 88.6078 42.5348 88.0742C42.6219 85.2423 42.7589 76.6865 41.5 71.0215C40.5674 66.8248 33.5465 61.7583 32.6044 61.0944C32.5335 61.0445 32.4714 60.9881 32.415 60.9223L23.7109 50.7675C23.5738 50.6076 23.3907 50.4929 23.1836 50.4548C21.0848 50.0684 18 50.5215 18 50.5215V30.0215C18 30.0215 18 27.0215 14 27.0215C10 27.0215 10 30.0215 10 30.0215V58.7687C10 58.9346 10.0413 59.0979 10.1201 59.2439L23.3799 83.7991C23.4587 83.9451 23.5 84.1083 23.5 84.2742Z" fill="#fff" stroke-width="2px" style="animation-duration: 1.6s;"></path><path class="stroke1" d="M18 50.5215V30.0215C18 30.0215 18 30.0215 18 30.0215C18 30.0215 18 27.0215 14 27.0215C10 27.0215 10 30.0215 10 30.0215C10 30.0215 10 30.0215 10 30.0215V58.7687C10 58.9346 10.0413 59.0979 10.1201 59.2439L23.3799 83.7991C23.4587 83.9451 23.5 84.1083 23.5 84.2742V88.0215C23.5 88.5738 23.9477 89.0215 24.5 89.0215H41.5463C42.0801 89.0215 42.5184 88.6078 42.5348 88.0742C42.6219 85.2423 42.7589 76.6865 41.5 71.0215C40.5674 66.8248 33.5465 61.7583 32.6044 61.0944C32.5335 61.0445 32.4714 60.9881 32.415 60.9223L23.7109 50.7675C23.5738 50.6076 23.3907 50.4929 23.1836 50.4548C21.0848 50.0684 18 50.5215 18 50.5215ZM18 50.5215C18 50.5215 16 54.5215 18 56.5215L28.5 67.5215" stroke="#000" stroke-width="2px" stroke-linecap="round" style="animation-duration: 1.6s;"></path><path class="fill1" d="M76.088 84.2742V88.0215C76.088 88.5738 75.6403 89.0215 75.088 89.0215H58.0418C57.5079 89.0215 57.0696 88.6078 57.0532 88.0742C56.9662 85.2423 56.8291 76.6865 58.088 71.0215C59.0206 66.8248 66.0415 61.7583 66.9836 61.0944C67.0545 61.0445 67.1166 60.9881 67.1731 60.9223L75.8771 50.7675C76.0142 50.6076 76.1973 50.4929 76.4044 50.4548C78.5032 50.0684 81.588 50.5215 81.588 50.5215V30.0215C81.588 30.0215 81.588 27.0215 85.588 27.0215C89.588 27.0215 89.588 30.0215 89.588 30.0215V58.7687C89.588 58.9346 89.5467 59.0979 89.4679 59.2439L76.2081 83.7991C76.1293 83.9451 76.088 84.1083 76.088 84.2742Z" fill="#fff" stroke-width="2px" style="animation-duration: 1.6s;"></path><path class="stroke1" d="M81.588 50.5215V30.0215C81.588 30.0215 81.588 30.0215 81.588 30.0215C81.588 30.0215 81.588 27.0215 85.588 27.0215C89.588 27.0215 89.588 30.0215 89.588 30.0215C89.588 30.0215 89.588 30.0215 89.588 30.0215V58.7687C89.588 58.9346 89.5467 59.0979 89.4679 59.2439L76.2081 83.7991C76.1293 83.9451 76.088 84.1083 76.088 84.2742V88.0215C76.088 88.5738 75.6403 89.0215 75.088 89.0215H58.0418C57.5079 89.0215 57.0696 88.6078 57.0532 88.0742C56.9662 85.2423 56.8291 76.6865 58.088 71.0215C59.0206 66.8248 66.0415 61.7583 66.9836 61.0944C67.0545 61.0445 67.1166 60.9881 67.1731 60.9223L75.8771 50.7675C76.0142 50.6076 76.1973 50.4929 76.4044 50.4548C78.5032 50.0684 81.588 50.5215 81.588 50.5215ZM81.588 50.5215C81.588 50.5215 83.588 54.5215 81.588 56.5215L71.088 67.5215" stroke="#000" stroke-width="2px" stroke-linecap="round" style="animation-duration: 1.6s;"></path><g class="line-token1" style="animation-duration: 1.6s;"><circle class="stroke2 fill2" cx="49.5" cy="35.5" r="18.5" fill="#fff" stroke="#000" stroke-width="2px"></circle><path class="stroke2" d="M49.5 17.5605V53.4393" stroke="#000" stroke-width="2px"></path><path class="stroke2" d="M33.964 26.5303L65.036 44.4697" stroke="#000" stroke-width="2px"></path><path class="stroke2" d="M65.036 26.5303L33.964 44.4697" stroke="#000" stroke-width="2px"></path><circle class="stroke2 fill2" cx="49.5" cy="35.4999" r="8.40909" fill="#fff" stroke="#000" stroke-width="2px"></circle></g></svg>