<svg width="100" height="100" viewBox="0 0 100 100" fill="none" xmlns="http://www.w3.org/2000/svg" style="width: 150px; height: 150px;"><style>
     .line-mindmap2-line1 {animation:line-mindmap2-line 3s infinite; stroke-dasharray: 110; stroke-dashoffset: 120;}
     .line-mindmap2-line2 {animation:line-mindmap2-line 3s infinite; stroke-dasharray: 110; stroke-dashoffset: 120;}
     .line-mindmap2-line3 {animation:line-mindmap2-line 3s infinite; stroke-dasharray: 110; stroke-dashoffset: 120;}
     .line-mindmap2-line4 {animation:line-mindmap2-line 3s infinite; stroke-dasharray: 110; stroke-dashoffset: 120;}
     .line-mindmap2-line5 {animation:line-mindmap2-line 3s infinite; stroke-dasharray: 110; stroke-dashoffset: 120;}
     .line-mindmap2-line6 {animation:line-mindmap2-line 3s infinite; stroke-dasharray: 110; stroke-dashoffset: 120;}
     .line-mindmap2-line7 {animation:line-mindmap2-line 3s infinite; stroke-dasharray: 110; stroke-dashoffset: 120;}
     @keyframes line-mindmap2-line{
         0%{stroke-dashoffset: 110;}
         30%{stroke-dashoffset: 110;}
         80%{stroke-dashoffset: 0; opacity: 1;}
         100%{stroke-dashoffset: 0; opacity: 1;}
     }
     .line-mindmap2-dot1{animation: line-mindmap2-dot 3s infinite ease-in-out; transform-origin:74.5px 18.5px; transform: scale3d(0, 0, 0);}
     .line-mindmap2-dot2{animation: line-mindmap2-dot 3s infinite ease-in-out; transform-origin:83.5px 33px; transform: scale3d(0, 0, 0);}
     .line-mindmap2-dot3{animation: line-mindmap2-dot 3s infinite ease-in-out; transform-origin:61.5px 50px; transform: scale3d(0, 0, 0);}
     .line-mindmap2-dot4{animation: line-mindmap2-dot 3s infinite ease-in-out; transform-origin:72.5px 58px; transform: scale3d(0, 0, 0);}
     .line-mindmap2-dot5{animation: line-mindmap2-dot 3s infinite ease-in-out; transform-origin:66.5px 67px; transform: scale3d(0, 0, 0);}
     .line-mindmap2-dot6{animation: line-mindmap2-dot 3s infinite ease-in-out; transform-origin:83.5px 58px; transform: scale3d(0, 0, 0);}
     .line-mindmap2-dot7{animation: line-mindmap2-dot 3s infinite ease-in-out; transform-origin:69.5px 83.5px; transform: scale3d(0, 0, 0);}
     @keyframes line-mindmap2-dot{
         0% {transform: scale3d(0, 0, 0);}
         40% {transform: scale3d(0, 0, 0);}
         50% {transform: scale3d(1, 1, 1);}
         60% {transform: scale3d(.8, .8, .8);}
         70% {transform: scale3d(1, 1, 1);}
         100% {transform: scale3d(1, 1, 1);}
     }
     @media (prefers-reduced-motion: reduce) {
         .line-mindmap2-line1, .line-mindmap2-line2, .line-mindmap2-line3, .line-mindmap2-line4, .line-mindmap2-line5, .line-mindmap2-line6, .line-mindmap2-line7, .line-mindmap2-dot1, .line-mindmap2-dot2, .line-mindmap2-dot3, .line-mindmap2-dot4, .line-mindmap2-dot5, .line-mindmap2-dot6, .line-mindmap2-dot7 {
             animation: none;
         }
     }
    </style><path class="line-mindmap2-line1 stroke2" d="M47.5 26.0026H68L75 19.0026" stroke="#000" stroke-width="2px" style="animation-duration: 3s;"></path><circle class="line-mindmap2-dot1 stroke2 fill2" cx="74.5" cy="18.5026" r="3" fill="#fff" stroke="#000" stroke-width="2px" style="animation-duration: 3s;"></circle><path class="line-mindmap2-line2 stroke2" d="M48 33.0026H83.5" stroke="#000" stroke-width="2px" style="animation-duration: 3s;"></path><circle class="line-mindmap2-dot2 stroke2 fill2" cx="83.5" cy="33.0026" r="3" fill="#fff" stroke="#000" stroke-width="2px" style="animation-duration: 3s;"></circle><path class="line-mindmap2-line3 stroke2" d="M48 50.0026H61.5" stroke="#000" stroke-width="2px" style="animation-duration: 3s;"></path><circle class="line-mindmap2-dot3 stroke2 fill2" cx="61.5" cy="50.0026" r="3" fill="#fff" stroke="#000" stroke-width="2px" style="animation-duration: 3s;"></circle><path class="line-mindmap2-line4 stroke2" d="M48 58.0024H72.5" stroke="#000" stroke-width="2px" style="animation-duration: 3s;"></path><circle class="line-mindmap2-dot4 stroke2 fill2" cx="72.5" cy="58.0026" r="3" fill="#fff" stroke="#000" stroke-width="2px" style="animation-duration: 3s;"></circle><path class="line-mindmap2-line5 stroke2" d="M48 67.0024H66.5" stroke="#000" stroke-width="2px" style="animation-duration: 3s;"></path><circle class="line-mindmap2-dot5 stroke2 fill2" cx="66.5" cy="67.0024" r="3" fill="#fff" stroke="#000" stroke-width="2px" style="animation-duration: 3s;"></circle><path class="line-mindmap2-line6 stroke2" d="M48 42.0026H67L83.5 58.0026" stroke="#000" stroke-width="2px" style="animation-duration: 3s;"></path><circle class="line-mindmap2-dot6 stroke2 fill2" cx="83.5" cy="58.0026" r="3" fill="#fff" stroke="#000" stroke-width="2px" style="animation-duration: 3s;"></circle><path class="line-mindmap2-line7 stroke2" d="M46.5 74.5024H62L69 81.5024" stroke="#000" stroke-width="2px" style="animation-duration: 3s;"></path><circle class="line-mindmap2-dot7 stroke2 fill2" cx="69.5" cy="83.5" r="3" fill="#fff" stroke="#000" stroke-width="2px" style="animation-duration: 3s;"></circle><path class="stroke1 fill1" d="M50 77.2018V21.7006C50 21.5689 49.9875 21.4369 49.9592 21.3083C48.881 16.4093 44.3572 12.8923 39 13.0025C30.0412 13.1868 29.9414 18.8893 28.8422 22.5396C28.6568 23.155 28.1289 23.5844 27.5119 23.7642C25.9384 24.2229 22.8986 25.2894 21.5 27.0025C19.2264 29.7873 20.8851 32.6385 20.1181 36.0422C20.0495 36.3465 19.8908 36.6201 19.6853 36.8549C18.3227 38.4116 13 44.824 13 50.0025C13 55.4862 16.4105 59.7955 19.2951 62.7855C19.7347 63.2413 19.9448 63.8693 19.8915 64.5003C19.7251 66.4721 19.6025 70.8622 21.5 73.0025C23.3209 75.0565 25.9492 74.9376 27.9993 76.5579C28.3401 76.8273 28.5317 77.2334 28.6179 77.6592C28.8935 79.0209 29.6978 82.177 31.5 84.0025C34.1028 86.639 36.8244 87.4673 40.5 87.0025C45.6272 86.3543 47.9305 84.0724 49.9098 77.7923C49.9697 77.6022 50 77.4012 50 77.2018Z" fill="#fff" stroke="#000" stroke-width="2px" stroke-linecap="round" style="animation-duration: 3s;"></path><path class="stroke1" d="M44.5 24.5026C44.5 24.5026 44.5 18.5026 39.25 18.5026C34 18.5026 34 24.5026 34 24.5026" stroke="#000" stroke-width="2px" stroke-linecap="round" style="animation-duration: 3s;"></path><path class="stroke1" d="M33.5 32.0025C33.5 32.0025 40.5 31.5026 40.5 39.7525C40.5 48.0025 33.5 47.5025 33.5 47.5025" stroke="#000" stroke-width="2px" stroke-linecap="round" style="animation-duration: 3s;"></path><path class="stroke1" d="M29.5 40.0025C29.5 40.0025 26 39.5026 22 43.5025C18 47.5025 18.5 51.0025 18.5 51.0025" stroke="#000" stroke-width="2px" stroke-linecap="round" style="animation-duration: 3s;"></path><path class="stroke1" d="M27 51.0026C27 51.0026 27 56.0026 30.75 57.5026C34.5 59.0026 40.5 58.0026 40.5 58.0026" stroke="#000" stroke-width="2px" stroke-linecap="round" style="animation-duration: 3s;"></path><path class="stroke1" d="M35.5 63.5024C35.5 63.5024 35 67.5024 38 70.0024C41 72.5024 44.5 72.5024 44.5 72.5024" stroke="#000" stroke-width="2px" stroke-linecap="round" style="animation-duration: 3s;"></path><path class="stroke1" d="M25.5 65.0024C25.5 65.0024 25.5 67.0024 26.5 68.7524C27.5 70.5024 29.5 70.5024 29.5 70.5024" stroke="#000" stroke-width="2px" stroke-linecap="round" style="animation-duration: 3s;"></path><path class="stroke1" d="M34 75.5024C34 75.5024 34 77.5024 36.25 79.5024C38.5 81.5024 40.5 81.5024 40.5 81.5024" stroke="#000" stroke-width="2px" stroke-linecap="round" style="animation-duration: 3s;"></path></svg>