<svg width="100" height="100" viewBox="0 0 100 100" fill="none" xmlns="http://www.w3.org/2000/svg" style="width: 100px; height: 100px;"><style>
     .line-bell1-body {animation:line-bell1-body 2s infinite;}
     @keyframes line-bell1-body {
         15%{transform:translate3d(0, 0, 0);}
         20%{transform:translate3d(0, 9px, 0);}
         21%{transform:translate3d(0, 9px, 0);}
         28%{transform:translate3d(0, 0, 0);}
         100%{transform:translate3d(0, 0, 0);}
     }
     .line-bell1-a {animation:line-bell1-a 2s infinite;}
     .line-bell1-b {animation:line-bell1-b 2s infinite;}
     .line-bell1-c {animation:line-bell1-c 2s infinite;}
     .line-bell1-d {animation:line-bell1-d 2s infinite;}
     @keyframes line-bell1-a {
         0%{opacity: 0;}
         20%{transform:translate3d(0, 0, 0); opacity: 0;}
         60%{opacity: .8;}
         70%{transform:translate3d(-4px, 0, 0); opacity: .8;}
         90%{opacity: 0;}
         100%{transform:translate3d(-4px, 0, 0); opacity: 0;}
     }
     @keyframes line-bell1-b {
         0%{opacity: 0;}
         20%{transform:translate3d(0, 0, 0); opacity: 0;}
         60%{opacity: .8;}
         70%{transform:translate3d(4px, 0, 0); opacity: .8;}
         90%{opacity: 0;}
         100%{transform:translate3d(4px, 0, 0); opacity: 0;}
     }
     @keyframes line-bell1-c {
         0%{opacity: 0;}
         20%{transform:translate3d(0, 0, 0); opacity: 0;}
         60%{opacity: .8;}
         70%{transform:translate3d(4px, -4px, 0); opacity: .8;}
         90%{opacity: 0;}
         100%{transform:translate3d(4px, -4px, 0); opacity: 0;}
     }
     @keyframes line-bell1-d {
         0%{opacity: 0;}
         20%{transform:translate3d(0, 0, 0); opacity: 0;}
         60%{opacity: .8;}
         70%{transform:translate3d(-4px, -4px, 0); opacity: .8;}
         90%{opacity: 0;}
         100%{transform:translate3d(-4px, -4px, 0); opacity: 0;}
     }
     @media (prefers-reduced-motion: reduce) {
         .line-bell1-body, .line-bell1-a, .line-bell1-b, .line-bell1-c, .line-bell1-d {
             animation: none;
         }
     }
    </style><path class="stroke1 fill1" fill-rule="evenodd" clip-rule="evenodd" d="M55.275 21.5H58.95C59.5299 21.5 60 21.0523 60 20.5V16C60 13.7909 58.1196 12 55.8 12H43.2C40.8804 12 39 13.7909 39 16V20.5C39 21.0523 39.4701 21.5 40.05 21.5H43.725H55.275Z" fill="#FFF" stroke-width="2px" style="animation-duration: 1s;"></path><path class="stroke1 fill2" d="M55.275 21.5H43.725M55.275 21.5V43H43.725V21.5M55.275 21.5H58.95M43.725 21.5H40.05M58.95 21.5C59.5299 21.5 60 21.0523 60 20.5M58.95 21.5H59C59.5523 21.5 60 21.0523 60 20.5V20.5M40.05 21.5C39.4701 21.5 39 21.0523 39 20.5M40.05 21.5H40C39.4477 21.5 39 21.0523 39 20.5V20.5M39 20.5V16M39 16C39 13.7909 40.8804 12 43.2 12M39 16V16C39 13.7909 40.7909 12 43 12H43.2M43.2 12H55.8M55.8 12C58.1196 12 60 13.7909 60 16M55.8 12H56C58.2091 12 60 13.7909 60 16V16M60 16V20.5" stroke="#000" stroke-width="2px" fill="#FFF" style="animation-duration: 1s;"></path><rect class="stroke1 fill2" x="40" y="61" width="19" height="20" fill="#FFF" stroke="#000" stroke-width="2px" style="animation-duration: 1s;"></rect><path class="stroke1 fill1" d="M10 88C10 83.0294 14.0294 79 19 79H81C85.9706 79 90 83.0294 90 88V90H10V88Z" fill="#FFF" stroke="#000" stroke-width="2px" style="animation-duration: 1s;"></path><g class="line-bell1-body" style="animation-duration: 1s;"><path class="stroke1 fill1" d="M82.1199 70H17.9201C16.8553 70 15.9871 69.1657 16.0082 68.1012C16.0287 67.0693 16.0928 65.6633 16.2605 64C17.363 53.063 22.9428 31 50.02 31C77.0972 31 82.677 53.063 83.7795 64C83.9472 65.6633 84.0113 67.0693 84.0318 68.1012C84.0529 69.1657 83.1847 70 82.1199 70Z" fill="#FFF" stroke-width="2px" style="animation-duration: 1s;"></path><path class="stroke1 fill1" d="M16.2605 64C17.363 53.063 22.9428 31 50.02 31C77.0972 31 82.677 53.063 83.7795 64M16.2605 64C16.0928 65.6633 16.0287 67.0693 16.0082 68.1012C15.9871 69.1657 16.8553 70 17.9201 70H82.1199C83.1847 70 84.0529 69.1657 84.0318 68.1012C84.0113 67.0693 83.9472 65.6633 83.7795 64M16.2605 64H83.7795" stroke="#000" stroke-width="2px" style="animation-duration: 1s;"></path></g><path class="line-bell1-a stroke2" d="M22 30.5H8" stroke="#000" stroke-width="2px" stroke-linecap="round" style="animation-duration: 1s;"></path><path class="line-bell1-b stroke2" d="M91 30.5H77" stroke="#000" stroke-width="2px" stroke-linecap="round" style="animation-duration: 1s;"></path><path class="line-bell1-c stroke2" d="M83.3276 11.3003L73.4281 21.1998" stroke="#000" stroke-width="2px" stroke-linecap="round" style="animation-duration: 1s;"></path><path class="line-bell1-d stroke2" d="M25.5719 21.1997L15.6724 11.3002" stroke="#000" stroke-width="2px" stroke-linecap="round" style="animation-duration: 1s;"></path></svg>