<svg width="100" height="100" viewBox="0 0 100 100" fill="none" xmlns="http://www.w3.org/2000/svg" style="width: 100px; height: 100px;"><style>
     .line-card2 {animation: line-card2 3s infinite ease-in-out; transform-origin: 82px 90.5px;}
     @keyframes line-card2 {
         0% { transform: rotate(0deg);}
         30% { transform: rotate(10deg);}
         40% { transform: rotate(0deg);}
         100% { transform: rotate(0deg);}
     }
     @media (prefers-reduced-motion: reduce) {
         .line-card2 {
             animation: none;
         }
     }
    </style><g class="line-card2" style="animation-duration: 3s;"><rect class="stroke1 fill1" x="44.7124" y="80.4965" width="8.80374" height="17.9116" rx="4.40187" transform="rotate(-82.6029 44.7124 80.4965)" fill="#FFF" stroke="#000" stroke-width="2px"></rect><rect class="stroke1 fill1" x="40.7124" y="71.7385" width="8.80374" height="17.9116" rx="4.40187" transform="rotate(-64.9015 40.7124 71.7385)" fill="#FFF" stroke="#000" stroke-width="2px"></rect><rect class="stroke1 fill1" x="38.7124" y="60.9525" width="8.80374" height="17.9116" rx="4.40187" transform="rotate(-44.6446 38.7124 60.9525)" fill="#FFF" stroke="#000" stroke-width="2px"></rect><rect class="stroke2 fill2" x="22.069" y="10" width="55.4983" height="31.7133" rx="4" transform="rotate(24.3367 22.069 10)" fill="#FFF" stroke="#000" stroke-width="2px"></rect><path class="fill1" d="M80.7125 54.266C87.243 62.4819 89.9486 78.4801 90.5682 82.7161C90.665 83.3781 90.4074 84.0276 89.8994 84.463L74.1659 97.9489C73.583 98.4485 72.7679 98.5703 72.0765 98.2368C68.921 96.7146 60.0312 92.0611 56.2125 86.266C53.1191 81.5715 51.8601 77.7697 50.7125 72.266C50.0303 68.994 51.2073 66.7555 49.7125 63.766C47.2125 58.766 37.7125 51.766 37.7125 51.766C37.7125 51.766 35.2125 48.266 38.2125 44.266C41.2125 40.266 45.7125 43.766 45.7125 43.766C45.7125 43.766 55.831 53.6892 60.7125 58.766C63.7125 52.266 68.2125 42.766 68.2125 42.766C68.2125 42.766 76.4032 48.8444 80.7125 54.266Z" fill="#FFF" stroke-width="2px"></path><path class="stroke1" d="M60.7125 58.766C55.831 53.6892 45.7125 43.766 45.7125 43.766C45.7125 43.766 41.2125 40.266 38.2125 44.266C35.2125 48.266 37.7125 51.766 37.7125 51.766C37.7125 51.766 47.2125 58.766 49.7125 63.766C51.2073 66.7555 50.0303 68.994 50.7125 72.266C51.8601 77.7697 53.1191 81.5715 56.2125 86.266C60.0312 92.0611 68.921 96.7146 72.0765 98.2368C72.7679 98.5703 73.583 98.4485 74.1659 97.9489L89.8994 84.463C90.4074 84.0276 90.665 83.3781 90.5682 82.7161C89.9486 78.4801 87.243 62.4819 80.7125 54.266C76.4032 48.8444 68.2125 42.766 68.2125 42.766C68.2125 42.766 63.7125 52.266 60.7125 58.766ZM60.7125 58.766C66.5704 62.0855 73.2125 65.266 73.2125 65.266" stroke="#000" stroke-width="2px"></path><path class="stroke1" d="M45 58L37.9999 52C35.4999 49 36.6508 46.3324 38.7499 44C41 41.5 44 43 45.4999 44L60.4999 58.5L73 65" stroke="#000" stroke-width="2px"></path><path class="stroke1" d="M68.9999 41L61.2 57.7" stroke="#000" stroke-width="2px"></path></g></svg>