<svg width="100" height="100" viewBox="0 0 100 100" fill="none" xmlns="http://www.w3.org/2000/svg" style="width: 150px; height: 150px;"><style>
     .line-message3-line1 {animation:line-message3-line 3s 600ms infinite; stroke-dasharray: 150; stroke-dashoffset: 160;}
     .line-message3-line2 {animation:line-message3-line 3s 300ms infinite; stroke-dasharray: 150; stroke-dashoffset: 160;}
     .line-message3-line3 {animation:line-message3-line 3s infinite; stroke-dasharray: 150; stroke-dashoffset: 160;}
     @keyframes line-message3-line {
         0%{stroke-dashoffset: 160;}
         20%{stroke-dashoffset: 160;}
         50%{stroke-dashoffset: 0; opacity: 1;}
         80%{stroke-dashoffset: 0; opacity: 0;}
         100%{stroke-dashoffset: 150; opacity: 0;}
     }
     @media (prefers-reduced-motion: reduce) {
         .line-message3-line1, .line-message3-line2, .line-message3-line3 {
             animation: none;
         }
     }
    </style><g filter="url(#filter0_ii)"><path class="fill1" d="M84.5 13H15C10.5817 13 7 16.5817 7 21V59.5C7 63.9183 10.5817 67.5 15 67.5H18V85.0858C18 85.9767 19.0771 86.4229 19.7071 85.7929L37.7071 67.7929C37.8946 67.6054 38.149 67.5 38.4142 67.5H84.5C88.9183 67.5 92.5 63.9183 92.5 59.5V21C92.5 16.5817 88.9183 13 84.5 13Z" fill="#FFF" stroke-width="2px"></path></g><path class="stroke1" d="M84.5 13H15C10.5817 13 7 16.5817 7 21V59.5C7 63.9183 10.5817 67.5 15 67.5H18V85.0858C18 85.9767 19.0771 86.4229 19.7071 85.7929L37.7071 67.7929C37.8946 67.6054 38.149 67.5 38.4142 67.5H84.5C88.9183 67.5 92.5 63.9183 92.5 59.5V21C92.5 16.5817 88.9183 13 84.5 13Z" stroke="#000" stroke-width="2px"></path><path class="line-message3-line1 stroke2" d="M21 53H49" stroke="#000" stroke-width="2px"></path><path class="line-message3-line2 stroke2" d="M21 41H77" stroke="#000" stroke-width="2px"></path><path class="line-message3-line3 stroke2" d="M21 29H77" stroke="#000" stroke-width="2px"></path><defs><filter id="filter0_ii" x="4" y="8" width="93.5" height="81.0898" filterUnits="userSpaceOnUse" color-interpolation-filters="sRGB"><feFlood flood-opacity="0" result="BackgroundImageFix"></feFlood><feBlend mode="normal" in="SourceGraphic" in2="BackgroundImageFix" result="shape"></feBlend><feColorMatrix in="SourceAlpha" type="matrix" values="0 0 0 0 0 0 0 0 0 0 0 0 0 0 0 0 0 0 127 0" result="hardAlpha"></feColorMatrix><feOffset dx="4" dy="-4"></feOffset><feGaussianBlur stdDeviation="2"></feGaussianBlur><feComposite in2="hardAlpha" operator="arithmetic" k2="-1" k3="1"></feComposite><feColorMatrix type="matrix" values="0 0 0 0 0 0 0 0 0 0 0 0 0 0 0 0 0 0 0.3 0"></feColorMatrix><feBlend mode="normal" in2="shape" result="effect1_innerShadow"></feBlend><feColorMatrix in="SourceAlpha" type="matrix" values="0 0 0 0 0 0 0 0 0 0 0 0 0 0 0 0 0 0 127 0" result="hardAlpha"></feColorMatrix><feOffset dx="-4" dy="4"></feOffset><feGaussianBlur stdDeviation="1"></feGaussianBlur><feComposite in2="hardAlpha" operator="arithmetic" k2="-1" k3="1"></feComposite><feColorMatrix type="matrix" values="0 0 0 0 1 0 0 0 0 1 0 0 0 0 1 0 0 0 0.3 0"></feColorMatrix><feBlend mode="normal" in2="effect1_innerShadow" result="effect2_innerShadow"></feBlend></filter></defs></svg>