<svg width="100" height="100" viewBox="0 0 100 100" fill="none" xmlns="http://www.w3.org/2000/svg" style="width: 102px; height: 102px;"><style>
     .line-money3-a {animation:line-money3-a 1s infinite;}
     .line-money3-b {animation:line-money3-b 1s 50ms infinite;}
     @keyframes line-money3-a {
         0%{transform: translate3d(0, -6px, 0);}
         50%{transform: translate3d(0, -2px, 0);}
         100%{transform: translate3d(0, -6px, 0);}
     }
     @keyframes line-money3-b {
         0%{transform: translate3d(0, -6px, 0);}
         50%{transform: translate3d(0, -2px, 0);}
         100%{transform: translate3d(0, -6px, 0);}
     }
     @media (prefers-reduced-motion: reduce) {
         .line-money3-a, .line-money3-b {
             animation: none;
         }
     }
    </style><path class="fill1" d="M14 62C14 60.8954 14.8954 60 16 60H26C27.1046 60 28 60.8954 28 62V64.5V82V84C28 85.1046 27.1046 86 26 86H16C14.8954 86 14 85.1046 14 84V62Z" fill="#fff" stroke-width="2px" style="animation-duration: 1s;"></path><path class="fill1" d="M28 82C28 82 30.9412 80.2262 33 79.5C36.9331 78.1128 47.1505 84.7711 56.9977 84.9943C57.3276 85.0017 57.6581 84.9153 57.9487 84.7589C72.5981 76.8779 81.0265 71.3424 84.5446 68.9013C85.5742 68.1869 85.6311 66.7294 84.6132 65.9984C84.0314 65.5806 83.375 65.1526 82.7352 64.8272C82.2746 64.5929 81.7352 64.6147 81.2611 64.8202L67 71C67 71 65.4379 68.321 64 67C59.2353 62.6227 53.8009 66.9707 47.5 65.5C43.2908 64.5176 41.3223 61.9981 37 62C33.3522 62.0016 28 64.5 28 64.5V82Z" fill="#fff" stroke-width="2px" style="animation-duration: 1s;"></path><path class="stroke1" d="M28 82V84C28 85.1046 27.1046 86 26 86H16C14.8954 86 14 85.1046 14 84V62C14 60.8954 14.8954 60 16 60H26C27.1046 60 28 60.8954 28 62V64.5M28 82C28 82 30.9412 80.2262 33 79.5C36.9331 78.1128 47.1505 84.7711 56.9977 84.9943C57.3276 85.0017 57.6581 84.9153 57.9487 84.7589C72.5981 76.8779 81.0265 71.3424 84.5446 68.9013C85.5742 68.1869 85.6311 66.7294 84.6132 65.9984C84.0314 65.5806 83.375 65.1526 82.7352 64.8272C82.2746 64.5929 81.7352 64.6147 81.2611 64.8202L67 71M28 82V64.5M67 71C67 71 65.4379 68.321 64 67C59.2353 62.6227 53.8009 66.9707 47.5 65.5C43.2908 64.5176 41.3223 61.9981 37 62C33.3522 62.0016 28 64.5 28 64.5M67 71L67.0997 71.5984C67.307 72.8417 66.3263 73.9644 65.0664 73.9263L51 73.5" stroke="#000" stroke-width="2px" stroke-linecap="round" style="animation-duration: 1s;"></path><g class="line-money3-a" style="animation-duration: 1s;"><circle class="stroke2 fill2" cx="40" cy="37" r="11" fill="rgba(255,215,0,1)" stroke="#000" stroke-width="2px"></circle><path class="stroke2" d="M42.998 34.5714C42.998 34.5714 43.0701 31.6272 40.3527 31.7143M40.3527 31.7143C38.8836 31.7614 37.9601 33.1431 38.0013 34.5714C38.0657 36.8017 39.909 37.1 40.2858 37.1377C40.331 37.1422 40.3754 37.1429 40.4207 37.1453C40.8421 37.1675 43.0757 37.3949 42.998 39.7143C42.953 41.0572 41.7342 42.0414 40.3527 42M40.3527 31.7143V30M40.3527 42C37.8806 41.9259 38.0013 39.7143 38.0013 39.7143M40.3527 42V44" stroke="#000" stroke-width="2px" stroke-linecap="round"></path></g><g class="line-money3-b" style="animation-duration: 1s;"><circle class="stroke2 fill2" cx="67" cy="47" r="11" fill="rgba(255,215,0,1)" stroke="#000" stroke-width="2px"></circle><path class="stroke2" d="M69.998 44.5714C69.998 44.5714 70.0701 41.6272 67.3527 41.7143M67.3527 41.7143C65.8836 41.7614 64.9601 43.1431 65.0013 44.5714C65.0657 46.8017 66.909 47.1 67.2858 47.1377C67.331 47.1422 67.3754 47.1429 67.4207 47.1453C67.8421 47.1675 70.0757 47.3949 69.998 49.7143C69.953 51.0572 68.7342 52.0414 67.3527 52M67.3527 41.7143V40M67.3527 52C64.8806 51.9259 65.0013 49.7143 65.0013 49.7143M67.3527 52V54" stroke="#000" stroke-width="2px" stroke-linecap="round"></path></g></svg>