<svg width="100" height="100" viewBox="0 0 100 100" fill="none" xmlns="http://www.w3.org/2000/svg" style="width: 56px; height: 56px;"><style>
     .line-moon2 {animation:line-moon2-move 3s infinite;}
     @keyframes line-moon2-move {
         0%{transform: translate3d(0, -2px, 0);}
         50%{transform: translate3d(0, 2px, 0);}
         100%{transform: translate3d(0, -2px, 0);}
     }
     @media (prefers-reduced-motion: reduce) {
         .line-moon2 {
             animation: none;
         }
     }
    </style><g class="line-moon2" style="animation-duration: 3s;"><g filter="url(#filter0_ii)"><path class="fill2" d="M68.7144 38.481C58.2787 28.2326 63.5364 15.1602 65.1503 11.8103C65.2609 11.5807 64.9994 11.3425 64.7842 11.479C60.0489 14.4849 36.1353 31.2352 58.22 50.333C79.014 67.6937 92.9977 46.176 95.5711 41.729C95.6978 41.51 95.4492 41.2694 95.2251 41.3868C91.9799 43.0869 79.1665 48.7454 68.7144 38.481Z" fill="rgba(142,142,84,1)" stroke-width="2px"></path></g><path class="stroke2" d="M68.7144 38.481C58.2787 28.2326 63.5364 15.1602 65.1503 11.8103C65.2609 11.5807 64.9994 11.3425 64.7842 11.479C60.0489 14.4849 36.1353 31.2352 58.22 50.333C79.014 67.6937 92.9977 46.176 95.5711 41.729C95.6978 41.51 95.4492 41.2694 95.2251 41.3868C91.9799 43.0869 79.1665 48.7454 68.7144 38.481Z" stroke="#000" stroke-width="2px"></path></g><g filter="url(#filter1_ii)"><path class="fill1" d="M67.5 79H22C22 79 8 78 8 65.25C8 52.5 22 51.5 22 51.5C22 51.5 28 34.625 42.375 34.625C59 34.625 62.75 46.75 62.75 46.75C62.75 46.75 64.5 46.3182 67.5 47C78.5 49.5 81.5 55.5 81.5 63C81.5 78 67.5 79 67.5 79Z" fill="rgba(255,255,255,1)" stroke-width="2px"></path></g><path class="stroke1" d="M53 53.5C53 53.5 54.1102 50.5 57.5 48.5C59.3613 47.4018 62.75 46.75 62.75 46.75M62.75 46.75C62.75 46.75 64.5 46.3182 67.5 47C78.5 49.5 81.5 55.5 81.5 63C81.5 78 67.5 79 67.5 79H22C22 79 8 78 8 65.25C8 52.5 22 51.5 22 51.5C22 51.5 28 34.625 42.375 34.625C59 34.625 62.75 46.75 62.75 46.75Z" stroke="#000" stroke-width="2px" style="animation-duration: 3s;"></path><defs><filter id="filter0_ii" x="45.9998" y="6.42785" width="54.6067" height="53.5722" filterUnits="userSpaceOnUse" color-interpolation-filters="sRGB"><feFlood flood-opacity="0" result="BackgroundImageFix"></feFlood><feBlend mode="normal" in="SourceGraphic" in2="BackgroundImageFix" result="shape"></feBlend><feColorMatrix in="SourceAlpha" type="matrix" values="0 0 0 0 0 0 0 0 0 0 0 0 0 0 0 0 0 0 127 0" result="hardAlpha"></feColorMatrix><feOffset dx="4" dy="-4"></feOffset><feGaussianBlur stdDeviation="2"></feGaussianBlur><feComposite in2="hardAlpha" operator="arithmetic" k2="-1" k3="1"></feComposite><feColorMatrix type="matrix" values="0 0 0 0 0 0 0 0 0 0 0 0 0 0 0 0 0 0 0.3 0"></feColorMatrix><feBlend mode="normal" in2="shape" result="effect1_innerShadow"></feBlend><feColorMatrix in="SourceAlpha" type="matrix" values="0 0 0 0 0 0 0 0 0 0 0 0 0 0 0 0 0 0 127 0" result="hardAlpha"></feColorMatrix><feOffset dx="-4" dy="4"></feOffset><feGaussianBlur stdDeviation="1"></feGaussianBlur><feComposite in2="hardAlpha" operator="arithmetic" k2="-1" k3="1"></feComposite><feColorMatrix type="matrix" values="0 0 0 0 1 0 0 0 0 1 0 0 0 0 1 0 0 0 0.3 0"></feColorMatrix><feBlend mode="normal" in2="effect1_innerShadow" result="effect2_innerShadow"></feBlend></filter><filter id="filter1_ii" x="5" y="29.625" width="81.5" height="52.375" filterUnits="userSpaceOnUse" color-interpolation-filters="sRGB"><feFlood flood-opacity="0" result="BackgroundImageFix"></feFlood><feBlend mode="normal" in="SourceGraphic" in2="BackgroundImageFix" result="shape"></feBlend><feColorMatrix in="SourceAlpha" type="matrix" values="0 0 0 0 0 0 0 0 0 0 0 0 0 0 0 0 0 0 127 0" result="hardAlpha"></feColorMatrix><feOffset dx="4" dy="-4"></feOffset><feGaussianBlur stdDeviation="2"></feGaussianBlur><feComposite in2="hardAlpha" operator="arithmetic" k2="-1" k3="1"></feComposite><feColorMatrix type="matrix" values="0 0 0 0 0 0 0 0 0 0 0 0 0 0 0 0 0 0 0.3 0"></feColorMatrix><feBlend mode="normal" in2="shape" result="effect1_innerShadow"></feBlend><feColorMatrix in="SourceAlpha" type="matrix" values="0 0 0 0 0 0 0 0 0 0 0 0 0 0 0 0 0 0 127 0" result="hardAlpha"></feColorMatrix><feOffset dx="-4" dy="4"></feOffset><feGaussianBlur stdDeviation="1"></feGaussianBlur><feComposite in2="hardAlpha" operator="arithmetic" k2="-1" k3="1"></feComposite><feColorMatrix type="matrix" values="0 0 0 0 1 0 0 0 0 1 0 0 0 0 1 0 0 0 0.3 0"></feColorMatrix><feBlend mode="normal" in2="effect1_innerShadow" result="effect2_innerShadow"></feBlend></filter></defs></svg>