<svg width="100" height="100" viewBox="0 0 100 100" fill="none" xmlns="http://www.w3.org/2000/svg" style="width: 51px; height: 51px;"><style>
     .line-recycle1 {animation:line-recycle1-spin 3s infinite linear; transform-origin: 53px 50.5px;}
     @keyframes line-recycle1-spin {
         100%{transform:rotate(360deg);}
     }
     @media (prefers-reduced-motion: reduce) {
         .line-recycle1 {
             animation: none;
         }
     }
    </style><path class="stroke1 fill1" d="M29.2 22.8H20.5C19.1 22.8 18 21.7 18 20.3C18 18.9 19.1 17.8 20.5 17.8H29.2V22.8Z" fill="#fff" stroke="#000" stroke-width="2px" stroke-miterlimit="10" stroke-linecap="round" stroke-linejoin="round" style="animation-duration: 3s;"></path><path class="stroke1 fill1" d="M59.3008 13H36.8008C34.3008 13 32.0008 14.6 31.1008 17L30.8008 17.9H75.1008L59.3008 13Z" fill="#fff" stroke="#000" stroke-width="2px" stroke-miterlimit="10" stroke-linecap="round" stroke-linejoin="round" style="animation-duration: 3s;"></path><path class="stroke1 fill1" d="M64.3 87.8H42.2C38.5 87.8 35.5 85 35.3 81.3L31.5 24H75.1L71.3 81.3C71 84.9 68 87.8 64.3 87.8Z" fill="#fff" stroke="#000" stroke-width="2px" stroke-miterlimit="10" stroke-linecap="round" stroke-linejoin="round" style="animation-duration: 3s;"></path><path class="stroke2 fill2" d="M71.3008 87.8C76.8236 87.8 81.3008 83.3229 81.3008 77.8C81.3008 72.2772 76.8236 67.8 71.3008 67.8C65.7779 67.8 61.3008 72.2772 61.3008 77.8C61.3008 83.3229 65.7779 87.8 71.3008 87.8Z" fill="#fff" stroke="#000" stroke-width="2px" stroke-miterlimit="10" stroke-linecap="round" stroke-linejoin="round" style="animation-duration: 3s;"></path><path class="stroke2 fill2" d="M71.3008 83.8C74.6145 83.8 77.3008 81.1138 77.3008 77.8C77.3008 74.4863 74.6145 71.8 71.3008 71.8C67.9871 71.8 65.3008 74.4863 65.3008 77.8C65.3008 81.1138 67.9871 83.8 71.3008 83.8Z" fill="#fff" stroke="#000" stroke-width="2px" stroke-miterlimit="10" stroke-linecap="round" stroke-linejoin="round" style="animation-duration: 3s;"></path><path class="stroke2" d="M71.3008 71.8V77.8" stroke="#000" stroke-width="2px" stroke-miterlimit="10" stroke-linecap="round" stroke-linejoin="round" style="animation-duration: 3s;"></path><path class="stroke2" d="M71.3008 77.8L76.5008 80.8" stroke="#000" stroke-width="2px" stroke-miterlimit="10" stroke-linecap="round" stroke-linejoin="round" style="animation-duration: 3s;"></path><path class="stroke2" d="M71.3015 77.8L66.1016 80.8" stroke="#000" stroke-width="2px" stroke-miterlimit="10" stroke-linecap="round" stroke-linejoin="round" style="animation-duration: 3s;"></path><g class="line-recycle1" style="animation-duration: 3s;"><path class="stroke1" d="M44.6992 50.2002C44.6992 48.0002 45.4992 45.8002 47.1992 44.1002C49.4992 41.8002 52.6992 41.1002 55.6992 41.9002C56.9992 43.1002 57.2992 43.3002 57.6992 43.7002" stroke="#000" stroke-width="2px" stroke-miterlimit="10" stroke-linecap="round" stroke-linejoin="round" style="animation-duration: 3s;"></path><path class="stroke1 fill1" d="M59.0988 44.6001H55.2988C55.2988 44.6001 55.3988 41.8001 57.5988 40.6001L59.0988 44.6001Z" fill="#fff" stroke="#000" stroke-width="2px" stroke-miterlimit="10" stroke-linecap="round" stroke-linejoin="round" style="animation-duration: 3s;"></path><path class="stroke1" d="M61.5996 50.3999C61.5996 52.5999 60.7996 54.7999 59.0996 56.4999C56.7996 58.7999 53.5996 59.4999 50.5996 58.6999C49.2996 57.4999 48.9996 57.2999 48.5996 56.8999" stroke="#000" stroke-width="2px" stroke-miterlimit="10" stroke-linecap="round" stroke-linejoin="round" style="animation-duration: 3s;"></path><path class="stroke1 fill1" d="M47.1992 56H50.9992C50.9992 56 50.8992 58.8 48.6992 60L47.1992 56Z" fill="#fff" stroke="#000" stroke-width="2px" stroke-miterlimit="10" stroke-linecap="round" stroke-linejoin="round" style="animation-duration: 3s;"></path></g><path class="stroke1 fill1" d="M41.9992 17.8H29.1992V26H40.9992C41.7992 26 42.5992 25.6 43.0992 25C43.5992 24.4 44.3992 24 45.1992 24H77.1992V17.8H41.9992Z" fill="#fff" stroke="#000" stroke-width="2px" stroke-miterlimit="10" stroke-linecap="round" stroke-linejoin="round" style="animation-duration: 3s;"></path></svg>