<svg width="100" height="100" viewBox="0 0 100 100" fill="none" xmlns="http://www.w3.org/2000/svg" style="width: 150px; height: 150px;"><style>
     .line-spanner2 {animation:line-spanner2-tighten 2s infinite ease-out; transform-origin: 28px 28px;}
     @keyframes line-spanner2-tighten {
         0%{transform:rotate(-20deg);}
         10%{transform:rotate(-20deg);}
         85%{transform:rotate(20deg);}
         100%{transform:rotate(-20deg);}
     }
     @media (prefers-reduced-motion: reduce) {
         .line-spanner2 {
             animation: none;
         }
     }
    </style><path class="line-spanner2 stroke1 fill1" d="M25.3586 16.2946L16.6169 6.67878C16.3507 6.38586 16.5102 5.92284 16.9031 5.87444C19.5839 5.54424 27.5547 4.87954 31.5 8.0001C36.7878 12.1826 35.8347 23.9481 35.5584 26.5055C35.5241 26.8221 35.6352 27.1308 35.8642 27.3522L65.1234 55.6361C65.3592 55.8641 65.6875 55.9629 66.011 55.9085C68.4376 55.5005 78.8508 54.0564 83 58.5001C86.7075 62.4708 85.6099 71.3532 85.1535 74.144C85.0911 74.5256 84.6385 74.6731 84.3518 74.4137L75.2054 66.1383C74.8102 65.7808 74.2041 65.7959 73.8273 66.1727L66.6726 73.3275C66.2958 73.7043 66.2807 74.3103 66.6382 74.7055L74.9232 83.8626C75.1805 84.147 75.0352 84.5963 74.6577 84.6634C72.3982 85.0649 66.1288 85.9331 62.5 84.0001C56.1092 80.596 55.959 67.4664 55.9909 64.9268C55.9943 64.6516 55.8906 64.3889 55.6977 64.1927L26.9073 34.9143C26.6554 34.6582 26.2907 34.5552 25.9406 34.6355C23.6238 35.1673 14.7059 36.9199 10.5 33.5001C5.82294 29.6973 6.91169 19.4492 7.35846 16.3802C7.41476 15.9934 7.87258 15.8372 8.16241 16.0995L17.2946 24.3619C17.6897 24.7194 18.2958 24.7043 18.6726 24.3275L25.3257 17.6743C25.7032 17.2969 25.7176 16.6895 25.3586 16.2946Z" fill="#FFF" stroke="#000" stroke-width="2px"></path></svg>