<svg width="100" height="100" viewBox="0 0 100 100" fill="none" xmlns="http://www.w3.org/2000/svg" style="width: 99px; height: 99px;"><style>
     .line-thinking1 {animation:line-thinking1 3s linear infinite; transform-origin: 46.5px 36px;}
     @keyframes line-thinking1 {
         100%{transform: rotate(360deg);}
     }
     @media (prefers-reduced-motion: reduce) {
         .line-thinking1 {
             animation: none;
         }
     }
    </style><g filter="url(#filter0_ii)"><path class="fill1" d="M57.0281 77.8268V90.9177C57.0281 92.3662 55.5361 93.3343 54.2132 92.7441L25.7132 80.0287C24.9924 79.7071 24.5281 78.9916 24.5281 78.2023V59.0049C24.5281 58.6735 24.4475 58.3508 24.2953 58.0564C23.3161 56.1613 19.5575 48.5892 19.0315 43.0359C19.0292 43.0117 19.0286 43.0112 19.0274 42.9869C18.9877 42.2078 17.3572 7 46.7781 7C74.1101 7 74.6435 37.3859 74.5496 42.3252C74.541 42.7761 74.6696 43.2002 74.9236 43.5729C76.2606 45.5341 80.5281 52.0091 80.5281 54.75C80.5281 56.4842 78.1647 57.5187 76.4046 58.0487C75.3729 58.3593 74.6296 59.3444 74.6871 60.4203C74.8588 63.6313 74.7783 70.0299 71.7781 73C68.8456 75.9031 62.6976 75.9524 59.339 75.731C58.1174 75.6505 57.0281 76.6026 57.0281 77.8268Z" fill="#FFF" stroke-width="1.4px"></path></g><path class="stroke1" d="M57.0281 77.8268V90.9177C57.0281 92.3662 55.5361 93.3343 54.2132 92.7441L25.7132 80.0287C24.9924 79.7071 24.5281 78.9916 24.5281 78.2023V59.0049C24.5281 58.6735 24.4475 58.3508 24.2953 58.0564C23.3161 56.1613 19.5575 48.5892 19.0315 43.0359C19.0292 43.0117 19.0286 43.0112 19.0274 42.9869C18.9877 42.2078 17.3572 7 46.7781 7C74.1101 7 74.6435 37.3859 74.5496 42.3252C74.541 42.7761 74.6696 43.2002 74.9236 43.5729C76.2606 45.5341 80.5281 52.0091 80.5281 54.75C80.5281 56.4842 78.1647 57.5187 76.4046 58.0487C75.3729 58.3593 74.6296 59.3444 74.6871 60.4203C74.8588 63.6313 74.7783 70.0299 71.7781 73C68.8456 75.9031 62.6976 75.9524 59.339 75.731C58.1174 75.6505 57.0281 76.6026 57.0281 77.8268Z" stroke="#000" stroke-width="1.4px"></path><g class="line-thinking1"><g filter="url(#filter1_ii)"><path class="fill2" d="M42.4998 16V16.988C42.4998 17.7319 42.0868 18.4144 41.4278 18.7596L37.9249 20.5945C37.15 21.0004 36.2013 20.8556 35.5827 20.237L34.6781 19.3325C33.8971 18.5514 32.6308 18.5514 31.8497 19.3325L29.3004 21.8818C28.5432 22.6389 28.5167 23.8581 29.2403 24.6474L30.0759 25.559C30.6454 26.1803 30.7643 27.0919 30.3732 27.8385L28.5078 31.3997C28.1626 32.0587 27.4801 32.4717 26.7362 32.4717H26.0281C24.9235 32.4717 24.0281 33.3671 24.0281 34.4717V38.0283C24.0281 39.1329 24.9235 40.0283 26.0281 40.0283H26.9901C27.7477 40.0283 28.4402 40.4563 28.779 41.1339L30.6301 44.8362C31.0295 45.6349 30.851 46.6015 30.1927 47.2049L29.4861 47.8527C28.6467 48.6221 28.6182 49.936 29.4234 50.7412L31.9155 53.2333C32.6703 53.9882 33.8851 54.0171 34.675 53.299L35.3683 52.6687C35.9595 52.1313 36.8138 51.9972 37.5412 52.3279L41.3274 54.0489C42.0414 54.3734 42.4998 55.0853 42.4998 55.8696V56.5C42.4998 57.6046 43.3952 58.5 44.4998 58.5H48.0564C49.1609 58.5 50.0564 57.6046 50.0564 56.5V55.8931C50.0564 55.0968 50.5287 54.3764 51.2589 54.0589L55.2447 52.326C55.9982 51.9984 56.8754 52.1649 57.4564 52.7459L57.878 53.1675C58.6591 53.9486 59.9254 53.9486 60.7064 53.1675L63.1956 50.6784C63.9767 49.8973 63.9767 48.631 63.1956 47.8499L62.5505 47.2048C61.9418 46.5961 61.7909 45.6662 62.1759 44.8962L64.057 41.1339C64.3958 40.4563 65.0884 40.0283 65.8459 40.0283H66.5281C67.6326 40.0283 68.5281 39.1329 68.5281 38.0283V34.4717C68.5281 33.3671 67.6326 32.4717 66.5281 32.4717H65.4916C64.6307 32.4717 63.8665 31.9208 63.5942 31.1042L62.4223 27.5885C62.2148 26.9659 62.3259 26.281 62.7197 25.756L63.5691 24.6235C64.1663 23.8273 64.0871 22.7131 63.3833 22.0093L60.7064 19.3325C59.9254 18.5514 58.6591 18.5514 57.878 19.3325L57.1937 20.0168C56.6042 20.6063 55.7108 20.7683 54.9518 20.4233L51.2288 18.731C50.5148 18.4065 50.0564 17.6946 50.0564 16.9103V16C50.0564 14.8954 49.1609 14 48.0564 14H44.4998C43.3952 14 42.4998 14.8954 42.4998 16Z" fill="rgba(12,90,107,1)" stroke-width="1.4px"></path></g><path class="stroke2" d="M42.4998 16V16.988C42.4998 17.7319 42.0868 18.4144 41.4278 18.7596L37.9249 20.5945C37.15 21.0004 36.2013 20.8556 35.5827 20.237L34.6781 19.3325C33.8971 18.5514 32.6308 18.5514 31.8497 19.3325L29.3004 21.8818C28.5432 22.6389 28.5167 23.8581 29.2403 24.6474L30.0759 25.559C30.6454 26.1803 30.7643 27.0919 30.3732 27.8385L28.5078 31.3997C28.1626 32.0587 27.4801 32.4717 26.7362 32.4717H26.0281C24.9235 32.4717 24.0281 33.3671 24.0281 34.4717V38.0283C24.0281 39.1329 24.9235 40.0283 26.0281 40.0283H26.9901C27.7477 40.0283 28.4402 40.4563 28.779 41.1339L30.6301 44.8362C31.0295 45.6349 30.851 46.6015 30.1927 47.2049L29.4861 47.8527C28.6467 48.6221 28.6182 49.936 29.4234 50.7412L31.9155 53.2333C32.6703 53.9882 33.8851 54.0171 34.675 53.299L35.3683 52.6687C35.9595 52.1313 36.8138 51.9972 37.5412 52.3279L41.3274 54.0489C42.0414 54.3734 42.4998 55.0853 42.4998 55.8696V56.5C42.4998 57.6046 43.3952 58.5 44.4998 58.5H48.0564C49.1609 58.5 50.0564 57.6046 50.0564 56.5V55.8931C50.0564 55.0968 50.5287 54.3764 51.2589 54.0589L55.2447 52.326C55.9982 51.9984 56.8754 52.1649 57.4564 52.7459L57.878 53.1675C58.6591 53.9486 59.9254 53.9486 60.7064 53.1675L63.1956 50.6784C63.9767 49.8973 63.9767 48.631 63.1956 47.8499L62.5505 47.2048C61.9418 46.5961 61.7909 45.6662 62.1759 44.8962L64.057 41.1339C64.3958 40.4563 65.0884 40.0283 65.8459 40.0283H66.5281C67.6326 40.0283 68.5281 39.1329 68.5281 38.0283V34.4717C68.5281 33.3671 67.6326 32.4717 66.5281 32.4717H65.4916C64.6307 32.4717 63.8665 31.9208 63.5942 31.1042L62.4223 27.5885C62.2148 26.9659 62.3259 26.281 62.7197 25.756L63.5691 24.6235C64.1663 23.8273 64.0871 22.7131 63.3833 22.0093L60.7064 19.3325C59.9254 18.5514 58.6591 18.5514 57.878 19.3325L57.1937 20.0168C56.6042 20.6063 55.7108 20.7683 54.9518 20.4233L51.2288 18.731C50.5148 18.4065 50.0564 17.6946 50.0564 16.9103V16C50.0564 14.8954 49.1609 14 48.0564 14H44.4998C43.3952 14 42.4998 14.8954 42.4998 16Z" stroke="#000" stroke-width="1.4px"></path><g filter="url(#filter2_ii)"><circle class="fill2" cx="46.1381" cy="36.1101" r="9.7956" fill="rgba(12,90,107,1)" stroke-width="1.4px"></circle></g><circle class="stroke2" cx="46.1381" cy="36.1101" r="9.7956" stroke="#000" stroke-width="1.4px"></circle></g><defs><filter id="filter0_ii" x="16" y="2" width="69.5282" height="93.9211" filterUnits="userSpaceOnUse" color-interpolation-filters="sRGB"><feFlood flood-opacity="0" result="BackgroundImageFix"></feFlood><feBlend mode="normal" in="SourceGraphic" in2="BackgroundImageFix" result="shape"></feBlend><feColorMatrix in="SourceAlpha" type="matrix" values="0 0 0 0 0 0 0 0 0 0 0 0 0 0 0 0 0 0 127 0" result="hardAlpha"></feColorMatrix><feOffset dx="4" dy="-4"></feOffset><feGaussianBlur stdDeviation="2"></feGaussianBlur><feComposite in2="hardAlpha" operator="arithmetic" k2="-1" k3="1"></feComposite><feColorMatrix type="matrix" values="0 0 0 0 0 0 0 0 0 0 0 0 0 0 0 0 0 0 0.3 0"></feColorMatrix><feBlend mode="normal" in2="shape" result="effect1_innerShadow"></feBlend><feColorMatrix in="SourceAlpha" type="matrix" values="0 0 0 0 0 0 0 0 0 0 0 0 0 0 0 0 0 0 127 0" result="hardAlpha"></feColorMatrix><feOffset dx="-4" dy="4"></feOffset><feGaussianBlur stdDeviation="1"></feGaussianBlur><feComposite in2="hardAlpha" operator="arithmetic" k2="-1" k3="1"></feComposite><feColorMatrix type="matrix" values="0 0 0 0 1 0 0 0 0 1 0 0 0 0 1 0 0 0 0.3 0"></feColorMatrix><feBlend mode="normal" in2="effect1_innerShadow" result="effect2_innerShadow"></feBlend></filter><filter id="filter1_ii" x="21.0281" y="9" width="52.5" height="52.5" filterUnits="userSpaceOnUse" color-interpolation-filters="sRGB"><feFlood flood-opacity="0" result="BackgroundImageFix"></feFlood><feBlend mode="normal" in="SourceGraphic" in2="BackgroundImageFix" result="shape"></feBlend><feColorMatrix in="SourceAlpha" type="matrix" values="0 0 0 0 0 0 0 0 0 0 0 0 0 0 0 0 0 0 127 0" result="hardAlpha"></feColorMatrix><feOffset dx="4" dy="-4"></feOffset><feGaussianBlur stdDeviation="2"></feGaussianBlur><feComposite in2="hardAlpha" operator="arithmetic" k2="-1" k3="1"></feComposite><feColorMatrix type="matrix" values="0 0 0 0 0 0 0 0 0 0 0 0 0 0 0 0 0 0 0.3 0"></feColorMatrix><feBlend mode="normal" in2="shape" result="effect1_innerShadow"></feBlend><feColorMatrix in="SourceAlpha" type="matrix" values="0 0 0 0 0 0 0 0 0 0 0 0 0 0 0 0 0 0 127 0" result="hardAlpha"></feColorMatrix><feOffset dx="-4" dy="4"></feOffset><feGaussianBlur stdDeviation="1"></feGaussianBlur><feComposite in2="hardAlpha" operator="arithmetic" k2="-1" k3="1"></feComposite><feColorMatrix type="matrix" values="0 0 0 0 1 0 0 0 0 1 0 0 0 0 1 0 0 0 0.3 0"></feColorMatrix><feBlend mode="normal" in2="effect1_innerShadow" result="effect2_innerShadow"></feBlend></filter><filter id="filter2_ii" x="33.3425" y="21.3145" width="27.5912" height="27.5912" filterUnits="userSpaceOnUse" color-interpolation-filters="sRGB"><feFlood flood-opacity="0" result="BackgroundImageFix"></feFlood><feBlend mode="normal" in="SourceGraphic" in2="BackgroundImageFix" result="shape"></feBlend><feColorMatrix in="SourceAlpha" type="matrix" values="0 0 0 0 0 0 0 0 0 0 0 0 0 0 0 0 0 0 127 0" result="hardAlpha"></feColorMatrix><feOffset dx="4" dy="-4"></feOffset><feGaussianBlur stdDeviation="2"></feGaussianBlur><feComposite in2="hardAlpha" operator="arithmetic" k2="-1" k3="1"></feComposite><feColorMatrix type="matrix" values="0 0 0 0 0 0 0 0 0 0 0 0 0 0 0 0 0 0 0.3 0"></feColorMatrix><feBlend mode="normal" in2="shape" result="effect1_innerShadow"></feBlend><feColorMatrix in="SourceAlpha" type="matrix" values="0 0 0 0 0 0 0 0 0 0 0 0 0 0 0 0 0 0 127 0" result="hardAlpha"></feColorMatrix><feOffset dx="-4" dy="4"></feOffset><feGaussianBlur stdDeviation="1"></feGaussianBlur><feComposite in2="hardAlpha" operator="arithmetic" k2="-1" k3="1"></feComposite><feColorMatrix type="matrix" values="0 0 0 0 1 0 0 0 0 1 0 0 0 0 1 0 0 0 0.3 0"></feColorMatrix><feBlend mode="normal" in2="effect1_innerShadow" result="effect2_innerShadow"></feBlend></filter></defs></svg>