<svg width="100" height="100" viewBox="0 0 100 100" fill="none" xmlns="http://www.w3.org/2000/svg" style="width: 49px; height: 49px;"><style>
     .line-money2 {animation:line-money2 1.6s infinite;}
     @keyframes line-money2 {
         0%{transform: translate3d(0, -2px, 0);}
         50%{transform: translate3d(0, 2px, 0);}
         100%{transform: translate3d(0, -2px, 0);}
     }
     @media (prefers-reduced-motion: reduce) {
         .line-money2 {
             animation: none;
         }
     }
    </style><g class="line-money2"><circle class="stroke1 fill1" cx="50" cy="50" r="25" fill="rgba(250,250,210,1)" stroke="#000" stroke-width="1.8px"></circle><path class="stroke1" d="M46.0091 25L47.0056 36.8417" stroke="#000" stroke-width="1.8px"></path><path class="stroke1" d="M54.6742 25.0349L53.0464 36.8068" stroke="#000" stroke-width="1.8px"></path><path class="stroke1" d="M46.0091 75L47.0056 63.1583" stroke="#000" stroke-width="1.8px"></path><path class="stroke1" d="M54.6742 74.9651L53.0464 63.1932" stroke="#000" stroke-width="1.8px"></path><path class="stroke1" d="M69.7131 34.0266L59.9353 40.8087" stroke="#000" stroke-width="1.8px"></path><path class="stroke1" d="M74.0153 41.533L62.9861 46.012" stroke="#000" stroke-width="1.8px"></path><path class="stroke1" d="M26.3243 59.0264L37.0985 53.9667" stroke="#000" stroke-width="1.8px"></path><path class="stroke1" d="M30.6873 66.498L40.0887 59.2052" stroke="#000" stroke-width="1.8px"></path><path class="stroke1" d="M74.0304 59.0352L63.2562 53.9755" stroke="#000" stroke-width="1.8px"></path><path class="stroke1" d="M69.6676 66.5066L60.2662 59.2138" stroke="#000" stroke-width="1.8px"></path><path class="stroke1" d="M30.6417 34.0349L40.4195 40.817" stroke="#000" stroke-width="1.8px"></path><path class="stroke1" d="M26.3396 41.5417L37.3689 46.0208" stroke="#000" stroke-width="1.8px"></path><circle class="stroke2 fill2" cx="50.5" cy="50.5" r="15.5" fill="rgba(255,215,0,1)" stroke="#000" stroke-width="1.8px"></circle><path class="stroke2" d="M53.2517 46.8705C53.2517 46.8705 53.3418 43.0896 49.9428 43.2014M49.9428 43.2014C48.1052 43.2619 46.9501 45.0363 47.0017 46.8705C47.083 49.7641 49.4358 50.1252 49.8732 50.1674C49.9196 50.1718 49.9644 50.1726 50.011 50.1749C50.4916 50.1981 53.35 50.4627 53.2517 53.4748C53.1954 55.1993 51.6709 56.4632 49.9428 56.41M49.9428 43.2014V41M49.9428 56.41C46.8507 56.3149 47.0017 53.4748 47.0017 53.4748M49.9428 56.41V58.9784" stroke="#000" stroke-width="1.8px" stroke-linecap="round"></path></g></svg>